<svg width="220" height="58" viewBox="0 0 220 58" fill="none" xmlns="http://www.w3.org/2000/svg">
<g filter="url(#filter0_d)">
<path d="M104.308 43H101.828V42.71C101.961 42.6567 102.094 42.6133 102.228 42.58C102.361 42.54 102.498 42.5033 102.638 42.47V37.97L102.678 36.8H102.598L102.268 37.87L100.218 43H99.9575L98.0075 37.87L97.6475 36.7H97.5575L97.5675 37.97V42.47C97.6942 42.4967 97.8208 42.53 97.9475 42.57C98.0742 42.61 98.2008 42.6567 98.3275 42.71V43H96.2375V42.71C96.3642 42.6567 96.4942 42.61 96.6275 42.57C96.7675 42.5233 96.9075 42.4867 97.0475 42.46V36.54C96.9075 36.5133 96.7675 36.48 96.6275 36.44C96.4942 36.3933 96.3608 36.3433 96.2275 36.29V36H98.2775L100.018 40.57L100.358 41.6H100.368L100.708 40.55L102.508 36H104.318V36.29C104.198 36.3433 104.074 36.3933 103.948 36.44C103.821 36.48 103.691 36.5133 103.558 36.54V42.48C103.698 42.5067 103.828 42.54 103.948 42.58C104.074 42.6133 104.194 42.6567 104.308 42.71V43ZM109.649 43H107.089V42.71C107.349 42.59 107.616 42.51 107.889 42.47V36.54C107.756 36.5133 107.623 36.48 107.489 36.44C107.356 36.3933 107.223 36.3433 107.089 36.29V36H109.649V36.29C109.529 36.3433 109.399 36.3933 109.259 36.44C109.119 36.48 108.983 36.5133 108.849 36.54V42.47C108.989 42.4967 109.129 42.53 109.269 42.57C109.409 42.61 109.536 42.6567 109.649 42.71V43ZM113.625 42.31C113.705 42.39 113.808 42.46 113.935 42.52C114.062 42.5733 114.252 42.6 114.505 42.6C114.718 42.6 114.918 42.5733 115.105 42.52C115.292 42.46 115.452 42.3767 115.585 42.27C115.725 42.1567 115.835 42.0233 115.915 41.87C115.995 41.71 116.035 41.53 116.035 41.33C116.035 41.0633 115.952 40.84 115.785 40.66C115.625 40.48 115.422 40.32 115.175 40.18C114.935 40.04 114.672 39.9033 114.385 39.77C114.098 39.6367 113.832 39.48 113.585 39.3C113.345 39.1133 113.142 38.8933 112.975 38.64C112.815 38.38 112.735 38.0567 112.735 37.67C112.735 37.39 112.785 37.14 112.885 36.92C112.985 36.7 113.125 36.5133 113.305 36.36C113.492 36.2067 113.712 36.09 113.965 36.01C114.218 35.9233 114.502 35.88 114.815 35.88C115.222 35.88 115.592 35.9133 115.925 35.98C116.265 36.04 116.532 36.1167 116.725 36.21C116.725 36.3233 116.715 36.4567 116.695 36.61C116.682 36.7567 116.662 36.91 116.635 37.07C116.615 37.23 116.592 37.3867 116.565 37.54C116.538 37.6867 116.512 37.8167 116.485 37.93H116.225L115.825 36.56C115.705 36.5067 115.552 36.4667 115.365 36.44C115.185 36.4133 114.992 36.4 114.785 36.4C114.445 36.4 114.172 36.4967 113.965 36.69C113.758 36.8767 113.655 37.14 113.655 37.48C113.655 37.7533 113.735 37.9833 113.895 38.17C114.062 38.3567 114.268 38.5233 114.515 38.67C114.762 38.8167 115.025 38.96 115.305 39.1C115.592 39.2333 115.858 39.39 116.105 39.57C116.352 39.75 116.555 39.9633 116.715 40.21C116.882 40.4567 116.965 40.7633 116.965 41.13C116.965 41.43 116.908 41.7033 116.795 41.95C116.688 42.1967 116.532 42.4067 116.325 42.58C116.118 42.7533 115.865 42.8867 115.565 42.98C115.265 43.0733 114.925 43.12 114.545 43.12C114.125 43.12 113.748 43.07 113.415 42.97C113.082 42.87 112.845 42.7633 112.705 42.65C112.712 42.5367 112.722 42.4 112.735 42.24C112.755 42.08 112.775 41.9167 112.795 41.75C112.822 41.5767 112.848 41.41 112.875 41.25C112.902 41.09 112.928 40.9533 112.955 40.84H113.215L113.625 42.31ZM120.986 42.31C121.066 42.39 121.17 42.46 121.296 42.52C121.423 42.5733 121.613 42.6 121.866 42.6C122.08 42.6 122.28 42.5733 122.466 42.52C122.653 42.46 122.813 42.3767 122.946 42.27C123.086 42.1567 123.196 42.0233 123.276 41.87C123.356 41.71 123.396 41.53 123.396 41.33C123.396 41.0633 123.313 40.84 123.146 40.66C122.986 40.48 122.783 40.32 122.536 40.18C122.296 40.04 122.033 39.9033 121.746 39.77C121.46 39.6367 121.193 39.48 120.946 39.3C120.706 39.1133 120.503 38.8933 120.336 38.64C120.176 38.38 120.096 38.0567 120.096 37.67C120.096 37.39 120.146 37.14 120.246 36.92C120.346 36.7 120.486 36.5133 120.666 36.36C120.853 36.2067 121.073 36.09 121.326 36.01C121.58 35.9233 121.863 35.88 122.176 35.88C122.583 35.88 122.953 35.9133 123.286 35.98C123.626 36.04 123.893 36.1167 124.086 36.21C124.086 36.3233 124.076 36.4567 124.056 36.61C124.043 36.7567 124.023 36.91 123.996 37.07C123.976 37.23 123.953 37.3867 123.926 37.54C123.9 37.6867 123.873 37.8167 123.846 37.93H123.586L123.186 36.56C123.066 36.5067 122.913 36.4667 122.726 36.44C122.546 36.4133 122.353 36.4 122.146 36.4C121.806 36.4 121.533 36.4967 121.326 36.69C121.12 36.8767 121.016 37.14 121.016 37.48C121.016 37.7533 121.096 37.9833 121.256 38.17C121.423 38.3567 121.63 38.5233 121.876 38.67C122.123 38.8167 122.386 38.96 122.666 39.1C122.953 39.2333 123.22 39.39 123.466 39.57C123.713 39.75 123.916 39.9633 124.076 40.21C124.243 40.4567 124.326 40.7633 124.326 41.13C124.326 41.43 124.27 41.7033 124.156 41.95C124.05 42.1967 123.893 42.4067 123.686 42.58C123.48 42.7533 123.226 42.8867 122.926 42.98C122.626 43.0733 122.286 43.12 121.906 43.12C121.486 43.12 121.11 43.07 120.776 42.97C120.443 42.87 120.206 42.7633 120.066 42.65C120.073 42.5367 120.083 42.4 120.096 42.24C120.116 42.08 120.136 41.9167 120.156 41.75C120.183 41.5767 120.21 41.41 120.236 41.25C120.263 41.09 120.29 40.9533 120.316 40.84H120.576L120.986 42.31ZM129.068 43H126.848V42.71C127.088 42.6033 127.328 42.5233 127.568 42.47L130.098 35.88H130.388L132.918 42.47C133.051 42.4967 133.181 42.5267 133.308 42.56C133.441 42.5933 133.564 42.6433 133.678 42.71V43H131.118V42.71C131.251 42.6567 131.388 42.61 131.528 42.57C131.668 42.53 131.804 42.4967 131.938 42.47L131.258 40.64H128.868L128.208 42.47C128.488 42.51 128.774 42.59 129.068 42.71V43ZM129.068 40.12H131.088L130.298 38L130.108 37.14H130.088L129.838 38.02L129.068 40.12ZM131.858 34.79C131.644 35.0033 131.448 35.15 131.268 35.23C131.094 35.31 130.924 35.35 130.758 35.35C130.631 35.35 130.511 35.3333 130.398 35.3C130.291 35.26 130.184 35.22 130.078 35.18C129.971 35.14 129.868 35.1033 129.768 35.07C129.668 35.03 129.564 35.01 129.458 35.01C129.364 35.01 129.268 35.03 129.168 35.07C129.074 35.1033 128.974 35.1667 128.868 35.26L128.678 34.97C128.931 34.7433 129.154 34.59 129.348 34.51C129.548 34.4233 129.731 34.38 129.898 34.38C130.018 34.38 130.131 34.3967 130.238 34.43C130.351 34.4633 130.458 34.5 130.558 34.54C130.658 34.58 130.758 34.6167 130.858 34.65C130.958 34.6833 131.061 34.7 131.168 34.7C131.254 34.7 131.341 34.6867 131.428 34.66C131.521 34.6267 131.621 34.5733 131.728 34.5L131.858 34.79ZM135.667 39.5C135.667 38.98 135.737 38.5 135.877 38.06C136.023 37.6133 136.23 37.23 136.497 36.91C136.77 36.5833 137.103 36.33 137.497 36.15C137.89 35.97 138.337 35.88 138.837 35.88C139.337 35.88 139.783 35.97 140.177 36.15C140.57 36.33 140.9 36.5833 141.167 36.91C141.44 37.23 141.647 37.6133 141.787 38.06C141.933 38.5 142.007 38.98 142.007 39.5C142.007 40.02 141.933 40.5033 141.787 40.95C141.647 41.39 141.44 41.7733 141.167 42.1C140.9 42.42 140.57 42.67 140.177 42.85C139.783 43.03 139.337 43.12 138.837 43.12C138.337 43.12 137.89 43.03 137.497 42.85C137.103 42.67 136.77 42.42 136.497 42.1C136.23 41.7733 136.023 41.39 135.877 40.95C135.737 40.5033 135.667 40.02 135.667 39.5ZM136.737 39.5C136.737 39.9267 136.78 40.33 136.867 40.71C136.96 41.0833 137.097 41.41 137.277 41.69C137.457 41.97 137.683 42.1933 137.957 42.36C138.23 42.52 138.553 42.6 138.927 42.6C139.267 42.6 139.563 42.52 139.817 42.36C140.07 42.1933 140.277 41.97 140.437 41.69C140.603 41.41 140.727 41.0833 140.807 40.71C140.893 40.33 140.937 39.9267 140.937 39.5C140.937 39.0733 140.893 38.6733 140.807 38.3C140.72 37.92 140.587 37.59 140.407 37.31C140.227 37.03 140 36.81 139.727 36.65C139.453 36.4833 139.13 36.4 138.757 36.4C138.39 36.4 138.077 36.4833 137.817 36.65C137.563 36.81 137.357 37.03 137.197 37.31C137.037 37.59 136.92 37.92 136.847 38.3C136.773 38.6733 136.737 39.0733 136.737 39.5ZM150.471 42.31C150.551 42.39 150.654 42.46 150.781 42.52C150.907 42.5733 151.097 42.6 151.351 42.6C151.564 42.6 151.764 42.5733 151.951 42.52C152.137 42.46 152.297 42.3767 152.431 42.27C152.571 42.1567 152.681 42.0233 152.761 41.87C152.841 41.71 152.881 41.53 152.881 41.33C152.881 41.0633 152.797 40.84 152.631 40.66C152.471 40.48 152.267 40.32 152.021 40.18C151.781 40.04 151.517 39.9033 151.231 39.77C150.944 39.6367 150.677 39.48 150.431 39.3C150.191 39.1133 149.987 38.8933 149.821 38.64C149.661 38.38 149.581 38.0567 149.581 37.67C149.581 37.39 149.631 37.14 149.731 36.92C149.831 36.7 149.971 36.5133 150.151 36.36C150.337 36.2067 150.557 36.09 150.811 36.01C151.064 35.9233 151.347 35.88 151.661 35.88C152.067 35.88 152.437 35.9133 152.771 35.98C153.111 36.04 153.377 36.1167 153.571 36.21C153.571 36.3233 153.561 36.4567 153.541 36.61C153.527 36.7567 153.507 36.91 153.481 37.07C153.461 37.23 153.437 37.3867 153.411 37.54C153.384 37.6867 153.357 37.8167 153.331 37.93H153.071L152.671 36.56C152.551 36.5067 152.397 36.4667 152.211 36.44C152.031 36.4133 151.837 36.4 151.631 36.4C151.291 36.4 151.017 36.4967 150.811 36.69C150.604 36.8767 150.501 37.14 150.501 37.48C150.501 37.7533 150.581 37.9833 150.741 38.17C150.907 38.3567 151.114 38.5233 151.361 38.67C151.607 38.8167 151.871 38.96 152.151 39.1C152.437 39.2333 152.704 39.39 152.951 39.57C153.197 39.75 153.401 39.9633 153.561 40.21C153.727 40.4567 153.811 40.7633 153.811 41.13C153.811 41.43 153.754 41.7033 153.641 41.95C153.534 42.1967 153.377 42.4067 153.171 42.58C152.964 42.7533 152.711 42.8867 152.411 42.98C152.111 43.0733 151.771 43.12 151.391 43.12C150.971 43.12 150.594 43.07 150.261 42.97C149.927 42.87 149.691 42.7633 149.551 42.65C149.557 42.5367 149.567 42.4 149.581 42.24C149.601 42.08 149.621 41.9167 149.641 41.75C149.667 41.5767 149.694 41.41 149.721 41.25C149.747 41.09 149.774 40.9533 149.801 40.84H150.061L150.471 42.31ZM156.862 39.5C156.862 38.98 156.932 38.5 157.072 38.06C157.219 37.6133 157.425 37.23 157.692 36.91C157.965 36.5833 158.299 36.33 158.692 36.15C159.085 35.97 159.532 35.88 160.032 35.88C160.532 35.88 160.979 35.97 161.372 36.15C161.765 36.33 162.095 36.5833 162.362 36.91C162.635 37.23 162.842 37.6133 162.982 38.06C163.129 38.5 163.202 38.98 163.202 39.5C163.202 40.02 163.129 40.5033 162.982 40.95C162.842 41.39 162.635 41.7733 162.362 42.1C162.095 42.42 161.765 42.67 161.372 42.85C160.979 43.03 160.532 43.12 160.032 43.12C159.532 43.12 159.085 43.03 158.692 42.85C158.299 42.67 157.965 42.42 157.692 42.1C157.425 41.7733 157.219 41.39 157.072 40.95C156.932 40.5033 156.862 40.02 156.862 39.5ZM157.932 39.5C157.932 39.9267 157.975 40.33 158.062 40.71C158.155 41.0833 158.292 41.41 158.472 41.69C158.652 41.97 158.879 42.1933 159.152 42.36C159.425 42.52 159.749 42.6 160.122 42.6C160.462 42.6 160.759 42.52 161.012 42.36C161.265 42.1933 161.472 41.97 161.632 41.69C161.799 41.41 161.922 41.0833 162.002 40.71C162.089 40.33 162.132 39.9267 162.132 39.5C162.132 39.0733 162.089 38.6733 162.002 38.3C161.915 37.92 161.782 37.59 161.602 37.31C161.422 37.03 161.195 36.81 160.922 36.65C160.649 36.4833 160.325 36.4 159.952 36.4C159.585 36.4 159.272 36.4833 159.012 36.65C158.759 36.81 158.552 37.03 158.392 37.31C158.232 37.59 158.115 37.92 158.042 38.3C157.969 38.6733 157.932 39.0733 157.932 39.5ZM171.204 41.18H171.464C171.498 41.3667 171.528 41.6033 171.554 41.89C171.581 42.17 171.588 42.4433 171.574 42.71C171.474 42.79 171.354 42.8567 171.214 42.91C171.074 42.9567 170.924 42.9967 170.764 43.03C170.611 43.0633 170.451 43.0867 170.284 43.1C170.124 43.1133 169.971 43.12 169.824 43.12C169.264 43.12 168.764 43.05 168.324 42.91C167.884 42.7633 167.511 42.5433 167.204 42.25C166.904 41.9567 166.671 41.5833 166.504 41.13C166.344 40.67 166.264 40.1267 166.264 39.5C166.264 38.8467 166.354 38.2933 166.534 37.84C166.714 37.38 166.958 37.0067 167.264 36.72C167.571 36.4267 167.928 36.2133 168.334 36.08C168.741 35.9467 169.168 35.88 169.614 35.88C170.054 35.88 170.424 35.91 170.724 35.97C171.024 36.0233 171.288 36.1067 171.514 36.22C171.514 36.3267 171.511 36.4533 171.504 36.6C171.498 36.74 171.488 36.89 171.474 37.05C171.461 37.21 171.444 37.3667 171.424 37.52C171.404 37.6733 171.384 37.8133 171.364 37.94H171.104L170.584 36.5C170.511 36.46 170.388 36.4333 170.214 36.42C170.048 36.4067 169.881 36.4 169.714 36.4C169.381 36.4 169.064 36.4633 168.764 36.59C168.471 36.71 168.211 36.9 167.984 37.16C167.764 37.4133 167.588 37.7367 167.454 38.13C167.321 38.5167 167.254 38.9733 167.254 39.5C167.254 39.9733 167.314 40.4033 167.434 40.79C167.554 41.17 167.728 41.4967 167.954 41.77C168.181 42.0367 168.458 42.2433 168.784 42.39C169.111 42.53 169.481 42.6 169.894 42.6C170.114 42.6 170.298 42.5833 170.444 42.55C170.591 42.5167 170.688 42.4733 170.734 42.42L171.204 41.18ZM177.21 43H174.65V42.71C174.91 42.59 175.177 42.51 175.45 42.47V36.54C175.317 36.5133 175.183 36.48 175.05 36.44C174.917 36.3933 174.783 36.3433 174.65 36.29V36H177.21V36.29C177.09 36.3433 176.96 36.3933 176.82 36.44C176.68 36.48 176.543 36.5133 176.41 36.54V42.47C176.55 42.4967 176.69 42.53 176.83 42.57C176.97 42.61 177.097 42.6567 177.21 42.71V43ZM181.906 43H179.686V42.71C179.926 42.6033 180.166 42.5233 180.406 42.47L182.936 35.88H183.226L185.756 42.47C185.889 42.4967 186.019 42.5267 186.146 42.56C186.279 42.5933 186.402 42.6433 186.516 42.71V43H183.956V42.71C184.089 42.6567 184.226 42.61 184.366 42.57C184.506 42.53 184.642 42.4967 184.776 42.47L184.096 40.64H181.706L181.046 42.47C181.326 42.51 181.612 42.59 181.906 42.71V43ZM181.906 40.12H183.926L183.136 38L182.946 37.14H182.926L182.676 38.02L181.906 40.12ZM188.802 36H191.542V36.29C191.382 36.35 191.222 36.4033 191.062 36.45C190.902 36.49 190.742 36.52 190.582 36.54V42.48H192.882L193.472 40.87H193.732C193.752 41.01 193.768 41.1733 193.782 41.36C193.802 41.54 193.815 41.73 193.822 41.93C193.835 42.1233 193.842 42.3133 193.842 42.5C193.842 42.6867 193.838 42.8533 193.832 43H188.802V42.71C188.962 42.6367 189.108 42.5833 189.242 42.55C189.375 42.5167 189.502 42.49 189.622 42.47V36.54C189.468 36.5133 189.322 36.48 189.182 36.44C189.042 36.3933 188.915 36.3433 188.802 36.29V36Z" fill="#E5E1D8"/>
<path d="M82.116 11.3C86.0993 11.3 88.091 12.6083 88.091 15.225C88.091 16.2917 87.7493 17.1833 87.066 17.9C86.3827 18.6 85.391 19.025 84.091 19.175C85.7743 19.4917 86.9993 19.9833 87.766 20.65C88.5327 21.3167 88.916 22.2583 88.916 23.475C88.916 25.0083 88.266 26.15 86.966 26.9C85.666 27.6333 83.9743 28 81.891 28H75.116V27.4L76.941 27.15V12.125L74.816 11.875V11.3H82.116ZM80.966 19.675L80.316 19.7V27.3C80.6327 27.3833 80.9993 27.425 81.416 27.425C82.566 27.425 83.5327 27.1083 84.316 26.475C85.0993 25.825 85.491 24.7583 85.491 23.275C85.491 21.3917 84.6743 20.2667 83.041 19.9C82.3743 19.75 81.6827 19.675 80.966 19.675ZM80.316 11.975V18.975H80.916C82.0827 18.975 82.991 18.6583 83.641 18.025C84.291 17.3917 84.616 16.475 84.616 15.275C84.616 14.0583 84.366 13.2083 83.866 12.725C83.366 12.225 82.566 11.975 81.466 11.975H80.316ZM107.639 28H100.289V27.4L102.314 27.175L100.014 21.425H94.3893L92.3893 26.75L94.6143 27.4V28H89.3893V27.4L91.2893 26.75L97.3393 11.3H99.0893L105.714 27.175L107.639 27.4V28ZM99.6393 20.5L97.1893 14.425L94.7393 20.5H99.6393ZM108.778 27.15C108.078 26.7 107.728 26.125 107.728 25.425C107.728 24.4583 108.495 23.8583 110.028 23.625C110.295 25.175 110.861 26.25 111.728 26.85C112.495 27.3833 113.303 27.65 114.153 27.65C115.02 27.65 115.761 27.3917 116.378 26.875C117.011 26.3417 117.328 25.475 117.328 24.275C117.328 23.375 117.003 22.6667 116.353 22.15C115.72 21.6167 114.911 21.15 113.928 20.75C112.945 20.35 112.278 20.075 111.928 19.925C111.578 19.7583 111.128 19.5167 110.578 19.2C110.045 18.8833 109.645 18.5833 109.378 18.3C108.711 17.5333 108.378 16.65 108.378 15.65C108.378 14.0833 108.961 12.9 110.128 12.1C111.295 11.3 112.92 10.9 115.003 10.9C116.186 10.9 117.561 11.0333 119.128 11.3V15H118.303L117.303 12.05C116.47 11.7833 115.62 11.65 114.753 11.65C113.903 11.65 113.161 11.925 112.528 12.475C111.895 13.0083 111.578 13.8083 111.578 14.875C111.578 16.0917 112.128 17 113.228 17.6C113.778 17.8833 114.428 18.1667 115.178 18.45C115.928 18.7333 116.47 18.95 116.803 19.1C117.136 19.2333 117.578 19.4583 118.128 19.775C118.678 20.075 119.086 20.375 119.353 20.675C119.62 20.975 119.861 21.375 120.078 21.875C120.295 22.3583 120.403 22.8917 120.403 23.475C120.403 24.8917 119.803 26.05 118.603 26.95C117.403 27.85 115.761 28.3 113.678 28.3C111.611 28.3 109.978 27.9167 108.778 27.15ZM122.058 28V27.4L124.233 27.175V12.125L122.058 11.9V11.3H134.808V14.85H134.008L133.033 12.2L127.558 12.125V18.85H132.408L133.183 17H133.883V21.65H133.158L132.408 19.75H127.558V27.2L133.783 27.125L135.083 24.275H135.883L135.583 28H122.058ZM148.894 19.275H149.744C152.411 19.275 153.744 18 153.744 15.45C153.744 14.2167 153.486 13.325 152.969 12.775C152.452 12.2083 151.636 11.925 150.519 11.925C149.802 11.925 149.261 11.9583 148.894 12.025V19.275ZM148.469 11.25L151.269 11.175C155.236 11.175 157.219 12.6 157.219 15.45C157.219 16.7167 156.769 17.75 155.869 18.55C154.969 19.35 153.811 19.75 152.394 19.75H151.819C153.719 20 155.019 20.575 155.719 21.475C156.436 22.375 156.794 23.7417 156.794 25.575C156.794 26.7083 157.027 27.4 157.494 27.65C157.661 27.75 157.902 27.8 158.219 27.8C158.552 27.8 159.002 27.6667 159.569 27.4L159.594 28C158.694 28.3833 157.777 28.575 156.844 28.575C154.977 28.575 153.852 27.875 153.469 26.475C153.336 25.8917 153.269 25.1667 153.269 24.3C153.269 23.4167 153.211 22.7417 153.094 22.275C152.994 21.7917 152.836 21.4 152.619 21.1C152.136 20.3667 151.227 20 149.894 20H148.894V27.175L150.794 27.4V28H143.744V27.4L145.594 27.2V12.075L143.444 11.775V11.15C144.844 11.2167 146.102 11.25 147.219 11.25H148.469ZM177.475 19.6C177.475 22.1 176.691 24.175 175.125 25.825C173.575 27.4583 171.475 28.275 168.825 28.275C166.191 28.275 164.091 27.4583 162.525 25.825C160.975 24.175 160.2 22.1 160.2 19.6C160.2 17.1 160.975 15.0333 162.525 13.4C164.091 11.75 166.191 10.925 168.825 10.925C171.475 10.925 173.575 11.75 175.125 13.4C176.691 15.0333 177.475 17.1 177.475 19.6ZM168.875 27.5C172.075 27.5 173.675 24.8667 173.675 19.6C173.675 17.0667 173.308 15.1167 172.575 13.75C171.858 12.3833 170.616 11.7 168.85 11.7C167.083 11.7 165.825 12.3833 165.075 13.75C164.341 15.1167 163.975 17.0667 163.975 19.6C163.975 24.8667 165.608 27.5 168.875 27.5ZM189.533 11.125L195.033 11.35L195.183 15.9H194.283L193.433 12.625C192.283 12.2417 191.174 12.05 190.108 12.05C188.124 12.05 186.516 12.7083 185.283 14.025C184.049 15.325 183.433 17.2583 183.433 19.825C183.433 22.375 184.033 24.25 185.233 25.45C186.433 26.65 187.941 27.25 189.758 27.25C191.591 27.25 192.916 27.05 193.733 26.65L194.658 23.8H195.458L195.308 27.475C193.224 27.925 191.399 28.15 189.833 28.15C188.283 28.15 186.958 28.025 185.858 27.775C184.758 27.5083 183.724 27.0833 182.758 26.5C181.791 25.9167 181.033 25.075 180.483 23.975C179.949 22.875 179.683 21.5583 179.683 20.025C179.683 18.4917 179.958 17.1417 180.508 15.975C181.074 14.7917 181.833 13.8583 182.783 13.175C184.683 11.8083 186.933 11.125 189.533 11.125ZM208.676 11.3H213.751V11.875L211.701 12.55L205.076 18.55L213.426 27.15L215.426 27.3V28H207.426V27.35L209.201 27.175L202.851 20.4V27.175L205.026 27.4V28H197.351V27.4L199.526 27.175V12.125L197.351 11.9V11.3H205.026V11.9L202.851 12.125V19.275L210.451 12.45L208.676 11.9V11.3Z" fill="#E5E1D8"/>
<g clip-path="url(#clip0)">
<path d="M42.1826 4.70061C53.3858 11.9761 56.5748 26.9793 49.2994 38.1826C42.0239 49.3858 27.0206 52.5749 15.8174 45.2994" stroke="#E5E1D8" stroke-width="1.5"/>
<path d="M15.8174 45.2995C4.61412 38.024 1.42508 23.0208 8.70056 11.8175C15.976 0.614271 30.9793 -2.57478 42.1826 4.70068" stroke="#E5E1D8" stroke-width="1.5"/>
<g opacity="0.95814">
<path d="M33.7947 8.16545L34.4839 5.59353L34.0861 5.48742L33.3979 8.05663C33.5304 8.09132 33.6625 8.12764 33.7947 8.16545ZM24.8733 8.00971L24.1812 5.42681L23.7837 5.53333L24.4754 8.11362C24.6076 8.0773 24.7402 8.04266 24.8733 8.00971ZM17.0768 12.3007L15.1297 10.3539L14.8388 10.6446L16.7833 12.5894C16.8801 12.4918 16.9778 12.3957 17.0768 12.3007ZM12.3297 20.3454L9.64289 19.6255L9.53642 20.0231L12.2285 20.7447C12.2606 20.6116 12.2944 20.4781 12.3297 20.3454ZM12.3659 29.3311L9.59692 30.0731L9.70379 30.4708L12.479 29.7271C12.44 29.5953 12.402 29.4636 12.3659 29.3311ZM16.7845 36.9716L14.7324 39.0238L15.0232 39.3152L17.0784 37.2601C16.9792 37.1653 16.881 37.0687 16.7845 36.9716ZM24.4516 41.4442L23.7112 44.2076L24.1088 44.3141L24.8497 41.5491C24.7169 41.5156 24.5844 41.4809 24.4516 41.4442ZM33.4191 41.493L34.1591 44.2538L34.5563 44.147L33.816 41.3833C33.6843 41.4213 33.5519 41.458 33.4191 41.493ZM41.2247 37.0305L43.1839 38.99L43.475 38.699L41.5126 36.7367C41.4184 36.8358 41.3217 36.934 41.2247 37.0305ZM45.605 29.687L48.257 30.3973L48.3638 29.9999L45.718 29.2912C45.6823 29.4231 45.6445 29.5553 45.605 29.687ZM45.8449 20.7861L48.4239 20.0951L48.3174 19.6976L45.7451 20.3868C45.7798 20.5195 45.8134 20.6529 45.8449 20.7861ZM41.5142 12.8238L43.3684 10.9696L43.0774 10.6784L41.2258 12.5299C41.3232 12.627 41.4199 12.7246 41.5142 12.8238ZM18.8814 7.49835L19.0903 7.85996L19.4468 7.65417L19.2378 7.29257L18.8814 7.49835ZM19.5077 8.58332L19.9255 9.30689L20.2821 9.10075L19.8644 8.37718L19.5077 8.58332ZM37.8812 40.4064L38.2981 41.129L38.6543 40.9236L38.2377 40.2006L37.8812 40.4064ZM38.7161 41.8522L38.9246 42.2145L39.2811 42.0087L39.0725 41.6464L38.7161 41.8522ZM45.9907 15.0043L46.3523 14.7953L46.5585 15.1519L46.1965 15.3607L45.9907 15.0043ZM44.5444 15.8392L45.2676 15.4213L45.4734 15.7777L44.7505 16.1959L44.5444 15.8392ZM12.7215 34.2124L13.4449 33.795L13.6506 34.1514L12.9273 34.5688L12.7215 34.2124ZM11.6369 34.839L11.9983 34.6304L12.2041 34.9868L11.8423 35.1952L11.6369 34.839ZM29.012 4.78405L29.0115 5.2015L29.4234 5.20169L29.4233 4.78384L29.012 4.78405ZM29.0117 6.03664L29.0119 6.87179L29.4235 6.87178L29.4233 6.03664L29.0117 6.03664ZM29.0118 42.7824L29.0121 43.6176L29.4236 43.6176L29.4234 42.7824L29.0118 42.7824ZM29.0121 44.4522L29.0121 44.8704L29.4237 44.8704L29.4241 44.4523L29.0121 44.4522ZM48.5209 24.8513L48.9385 24.8515L48.9387 25.2627L48.5209 25.2629L48.5209 24.8513ZM46.8506 24.8518L47.6857 24.8516L47.6857 25.2631L46.8508 25.263L46.8506 24.8518ZM10.1048 24.8519L10.9397 24.852L10.94 25.2633L10.1048 25.2635L10.1048 24.8519ZM8.85221 24.8516L9.26986 24.8518L9.26966 25.2637L8.85222 25.2632L8.85221 24.8516Z" fill="#E5E1D8"/>
</g>
<g opacity="0.95814">
<path d="M15.2087 14.4128L11.8067 14.4129L13.4645 17.2848C13.651 16.8992 13.8534 16.5175 14.0709 16.1407C14.4203 15.5355 14.8001 14.9592 15.2087 14.4128Z" fill="#E5E1D8"/>
<path d="M43.3501 34.4561L46.5227 34.4557L44.8953 31.6374C44.6339 32.2407 44.3349 32.8361 43.9982 33.4192C43.7928 33.775 43.576 34.1208 43.3501 34.4561Z" fill="#E5E1D8"/>
</g>
<g opacity="0.95814">
<path d="M13.9418 32.1552C13.8243 31.9067 13.7136 31.6556 13.6086 31.402L12.9903 31.6572L13.3036 32.4183L13.9418 32.1552ZM12.6147 28.0223C12.5651 27.7526 12.5222 27.4812 12.4863 27.2091L11.8299 27.294L11.9356 28.1102L12.6147 28.0223ZM15.2394 35.571L15.7734 35.1631C15.9398 35.3803 16.1119 35.5942 16.2899 35.8045L15.7397 36.2249L15.2394 35.571ZM26.779 41.5376L26.6891 42.211L27.505 42.3199L27.5981 41.6261C27.3254 41.6036 27.0515 41.5743 26.779 41.5376ZM31.1165 41.5444L31.2041 42.22L32.02 42.114L31.9301 41.4186C31.6602 41.4671 31.3888 41.5091 31.1165 41.5444ZM35.3089 40.4337L35.5664 41.0595L36.3274 40.7456L36.0627 40.1028C35.8136 40.219 35.5624 40.3296 35.3089 40.4337ZM39.0748 38.2788L39.4808 38.8103L40.1347 38.31L39.7175 37.764C39.5071 37.9415 39.2925 38.1132 39.0748 38.2788ZM45.3501 28.088L46.0119 28.1764L46.1204 27.3603L45.4805 27.2751C45.444 27.5467 45.4002 27.8176 45.3501 28.088ZM45.5781 23.7475L46.2354 23.6627L46.1292 22.8457L45.4934 22.9287C45.5283 23.2007 45.5569 23.4739 45.5781 23.7475ZM44.676 19.4944L45.283 19.2447L44.969 18.4831L44.3827 18.7249C44.4869 18.9789 44.5849 19.2356 44.676 19.4944ZM42.7063 15.616L43.2193 15.223L42.7197 14.5696L42.2232 14.9488C42.39 15.1677 42.5506 15.3901 42.7063 15.616ZM32.0013 8.66978L32.0857 8.03794L31.2698 7.92904L31.1882 8.54114C31.4597 8.57716 31.7306 8.61997 32.0013 8.66978ZM27.6545 8.45092L27.5719 7.8144L26.7555 7.92047L26.8354 8.53784C27.1075 8.50198 27.3803 8.47318 27.6545 8.45092ZM23.3997 9.36443L23.1534 8.76695L22.3926 9.08049L22.6309 9.6596C22.8848 9.5548 23.1413 9.45624 23.3997 9.36443ZM19.5259 11.3449L19.1325 10.8302L18.4785 11.3299L18.8599 11.8291C19.0785 11.6621 19.3006 11.5004 19.5259 11.3449ZM12.4835 22.866L11.8389 22.7799L11.7296 23.5956L12.3967 23.6847C12.4188 23.4118 12.4478 23.1386 12.4835 22.866Z" fill="#E5E1D8"/>
</g>
<rect x="41.473" y="24.4662" width="1.66667" height="20.5555" transform="rotate(119.825 41.473 24.4662)" fill="#E5E1D8"/>
<rect x="35.4256" y="12.6744" width="1.66667" height="27.7778" transform="rotate(29.8251 35.4256 12.6744)" fill="#E5E1D8"/>
<path d="M40.316 7.82922L40.2892 7.87556L40.4455 8.46008L39.3085 10.4294L39.2404 9.92673L38.7262 6.91139L37.9292 6.45124L37.9025 6.49758L37.9947 7.00135L36.4912 9.60553L35.9066 9.76277L35.88 9.80875L36.8435 10.365L36.8701 10.319L36.7136 9.73394L38.0644 7.39425L38.7576 11.4701L38.943 11.5771L40.6683 8.5887L41.2527 8.43182L41.2794 8.38548L40.316 7.82922Z" fill="#E5E1D8"/>
<path d="M19.072 42.8675C19.6651 43.2099 20.4093 43.1515 20.7839 42.5028C21.0675 42.0116 20.9847 41.5128 20.519 40.8856C20.0618 40.2756 19.9808 39.9879 20.1573 39.682C20.35 39.3484 20.6733 39.3127 20.9606 39.4785C21.3267 39.6899 21.3676 40.0899 21.0717 40.5488L21.0997 40.5968L21.8354 40.447C21.8232 40.007 21.549 39.583 21.1042 39.3262C20.613 39.0426 19.9103 38.9648 19.5387 39.6086C19.2843 40.0491 19.364 40.521 19.81 41.1183C20.289 41.7655 20.3737 42.0682 20.165 42.4297C19.9296 42.8374 19.5175 42.8771 19.1375 42.6577C18.6693 42.3878 18.5203 41.8755 18.7723 41.3105L18.5638 41.1901L18.002 42.1632L18.0439 42.1869L18.4136 42.1352C18.5285 42.4177 18.7476 42.6802 19.072 42.8675Z" fill="#E5E1D8"/>
</g>
</g>
<defs>
<filter id="filter0_d" x="0" y="0" width="219.426" height="58" filterUnits="userSpaceOnUse" color-interpolation-filters="sRGB">
<feFlood flood-opacity="0" result="BackgroundImageFix"/>
<feColorMatrix in="SourceAlpha" type="matrix" values="0 0 0 0 0 0 0 0 0 0 0 0 0 0 0 0 0 0 127 0"/>
<feOffset dy="4"/>
<feGaussianBlur stdDeviation="2"/>
<feColorMatrix type="matrix" values="0 0 0 0 0 0 0 0 0 0 0 0 0 0 0 0 0 0 0.25 0"/>
<feBlend mode="normal" in2="BackgroundImageFix" result="effect1_dropShadow"/>
<feBlend mode="normal" in="SourceGraphic" in2="effect1_dropShadow" result="shape"/>
</filter>
<clipPath id="clip0">
<rect width="50" height="50" fill="white" transform="translate(4)"/>
</clipPath>
</defs>
</svg>
