<svg width="212" height="50" viewBox="0 0 212 50" fill="none" xmlns="http://www.w3.org/2000/svg">
<path d="M100.308 43H97.8275V42.71C97.9608 42.6567 98.0942 42.6133 98.2275 42.58C98.3608 42.54 98.4975 42.5033 98.6375 42.47V37.97L98.6775 36.8H98.5975L98.2675 37.87L96.2175 43H95.9575L94.0075 37.87L93.6475 36.7H93.5575L93.5675 37.97V42.47C93.6942 42.4967 93.8208 42.53 93.9475 42.57C94.0742 42.61 94.2008 42.6567 94.3275 42.71V43H92.2375V42.71C92.3642 42.6567 92.4942 42.61 92.6275 42.57C92.7675 42.5233 92.9075 42.4867 93.0475 42.46V36.54C92.9075 36.5133 92.7675 36.48 92.6275 36.44C92.4942 36.3933 92.3608 36.3433 92.2275 36.29V36H94.2775L96.0175 40.57L96.3575 41.6H96.3675L96.7075 40.55L98.5075 36H100.318V36.29C100.198 36.3433 100.074 36.3933 99.9475 36.44C99.8208 36.48 99.6908 36.5133 99.5575 36.54V42.48C99.6975 42.5067 99.8275 42.54 99.9475 42.58C100.074 42.6133 100.194 42.6567 100.308 42.71V43ZM105.649 43H103.089V42.71C103.349 42.59 103.616 42.51 103.889 42.47V36.54C103.756 36.5133 103.623 36.48 103.489 36.44C103.356 36.3933 103.223 36.3433 103.089 36.29V36H105.649V36.29C105.529 36.3433 105.399 36.3933 105.259 36.44C105.119 36.48 104.983 36.5133 104.849 36.54V42.47C104.989 42.4967 105.129 42.53 105.269 42.57C105.409 42.61 105.536 42.6567 105.649 42.71V43ZM109.625 42.31C109.705 42.39 109.808 42.46 109.935 42.52C110.062 42.5733 110.252 42.6 110.505 42.6C110.718 42.6 110.918 42.5733 111.105 42.52C111.292 42.46 111.452 42.3767 111.585 42.27C111.725 42.1567 111.835 42.0233 111.915 41.87C111.995 41.71 112.035 41.53 112.035 41.33C112.035 41.0633 111.952 40.84 111.785 40.66C111.625 40.48 111.422 40.32 111.175 40.18C110.935 40.04 110.672 39.9033 110.385 39.77C110.098 39.6367 109.832 39.48 109.585 39.3C109.345 39.1133 109.142 38.8933 108.975 38.64C108.815 38.38 108.735 38.0567 108.735 37.67C108.735 37.39 108.785 37.14 108.885 36.92C108.985 36.7 109.125 36.5133 109.305 36.36C109.492 36.2067 109.712 36.09 109.965 36.01C110.218 35.9233 110.502 35.88 110.815 35.88C111.222 35.88 111.592 35.9133 111.925 35.98C112.265 36.04 112.532 36.1167 112.725 36.21C112.725 36.3233 112.715 36.4567 112.695 36.61C112.682 36.7567 112.662 36.91 112.635 37.07C112.615 37.23 112.592 37.3867 112.565 37.54C112.538 37.6867 112.512 37.8167 112.485 37.93H112.225L111.825 36.56C111.705 36.5067 111.552 36.4667 111.365 36.44C111.185 36.4133 110.992 36.4 110.785 36.4C110.445 36.4 110.172 36.4967 109.965 36.69C109.758 36.8767 109.655 37.14 109.655 37.48C109.655 37.7533 109.735 37.9833 109.895 38.17C110.062 38.3567 110.268 38.5233 110.515 38.67C110.762 38.8167 111.025 38.96 111.305 39.1C111.592 39.2333 111.858 39.39 112.105 39.57C112.352 39.75 112.555 39.9633 112.715 40.21C112.882 40.4567 112.965 40.7633 112.965 41.13C112.965 41.43 112.908 41.7033 112.795 41.95C112.688 42.1967 112.532 42.4067 112.325 42.58C112.118 42.7533 111.865 42.8867 111.565 42.98C111.265 43.0733 110.925 43.12 110.545 43.12C110.125 43.12 109.748 43.07 109.415 42.97C109.082 42.87 108.845 42.7633 108.705 42.65C108.712 42.5367 108.722 42.4 108.735 42.24C108.755 42.08 108.775 41.9167 108.795 41.75C108.822 41.5767 108.848 41.41 108.875 41.25C108.902 41.09 108.928 40.9533 108.955 40.84H109.215L109.625 42.31ZM116.986 42.31C117.066 42.39 117.17 42.46 117.296 42.52C117.423 42.5733 117.613 42.6 117.866 42.6C118.08 42.6 118.28 42.5733 118.466 42.52C118.653 42.46 118.813 42.3767 118.946 42.27C119.086 42.1567 119.196 42.0233 119.276 41.87C119.356 41.71 119.396 41.53 119.396 41.33C119.396 41.0633 119.313 40.84 119.146 40.66C118.986 40.48 118.783 40.32 118.536 40.18C118.296 40.04 118.033 39.9033 117.746 39.77C117.46 39.6367 117.193 39.48 116.946 39.3C116.706 39.1133 116.503 38.8933 116.336 38.64C116.176 38.38 116.096 38.0567 116.096 37.67C116.096 37.39 116.146 37.14 116.246 36.92C116.346 36.7 116.486 36.5133 116.666 36.36C116.853 36.2067 117.073 36.09 117.326 36.01C117.58 35.9233 117.863 35.88 118.176 35.88C118.583 35.88 118.953 35.9133 119.286 35.98C119.626 36.04 119.893 36.1167 120.086 36.21C120.086 36.3233 120.076 36.4567 120.056 36.61C120.043 36.7567 120.023 36.91 119.996 37.07C119.976 37.23 119.953 37.3867 119.926 37.54C119.9 37.6867 119.873 37.8167 119.846 37.93H119.586L119.186 36.56C119.066 36.5067 118.913 36.4667 118.726 36.44C118.546 36.4133 118.353 36.4 118.146 36.4C117.806 36.4 117.533 36.4967 117.326 36.69C117.12 36.8767 117.016 37.14 117.016 37.48C117.016 37.7533 117.096 37.9833 117.256 38.17C117.423 38.3567 117.63 38.5233 117.876 38.67C118.123 38.8167 118.386 38.96 118.666 39.1C118.953 39.2333 119.22 39.39 119.466 39.57C119.713 39.75 119.916 39.9633 120.076 40.21C120.243 40.4567 120.326 40.7633 120.326 41.13C120.326 41.43 120.27 41.7033 120.156 41.95C120.05 42.1967 119.893 42.4067 119.686 42.58C119.48 42.7533 119.226 42.8867 118.926 42.98C118.626 43.0733 118.286 43.12 117.906 43.12C117.486 43.12 117.11 43.07 116.776 42.97C116.443 42.87 116.206 42.7633 116.066 42.65C116.073 42.5367 116.083 42.4 116.096 42.24C116.116 42.08 116.136 41.9167 116.156 41.75C116.183 41.5767 116.21 41.41 116.236 41.25C116.263 41.09 116.29 40.9533 116.316 40.84H116.576L116.986 42.31ZM125.068 43H122.848V42.71C123.088 42.6033 123.328 42.5233 123.568 42.47L126.098 35.88H126.388L128.918 42.47C129.051 42.4967 129.181 42.5267 129.308 42.56C129.441 42.5933 129.564 42.6433 129.678 42.71V43H127.118V42.71C127.251 42.6567 127.388 42.61 127.528 42.57C127.668 42.53 127.804 42.4967 127.938 42.47L127.258 40.64H124.868L124.208 42.47C124.488 42.51 124.774 42.59 125.068 42.71V43ZM125.068 40.12H127.088L126.298 38L126.108 37.14H126.088L125.838 38.02L125.068 40.12ZM127.858 34.79C127.644 35.0033 127.448 35.15 127.268 35.23C127.094 35.31 126.924 35.35 126.758 35.35C126.631 35.35 126.511 35.3333 126.398 35.3C126.291 35.26 126.184 35.22 126.078 35.18C125.971 35.14 125.868 35.1033 125.768 35.07C125.668 35.03 125.564 35.01 125.458 35.01C125.364 35.01 125.268 35.03 125.168 35.07C125.074 35.1033 124.974 35.1667 124.868 35.26L124.678 34.97C124.931 34.7433 125.154 34.59 125.348 34.51C125.548 34.4233 125.731 34.38 125.898 34.38C126.018 34.38 126.131 34.3967 126.238 34.43C126.351 34.4633 126.458 34.5 126.558 34.54C126.658 34.58 126.758 34.6167 126.858 34.65C126.958 34.6833 127.061 34.7 127.168 34.7C127.254 34.7 127.341 34.6867 127.428 34.66C127.521 34.6267 127.621 34.5733 127.728 34.5L127.858 34.79ZM131.667 39.5C131.667 38.98 131.737 38.5 131.877 38.06C132.023 37.6133 132.23 37.23 132.497 36.91C132.77 36.5833 133.103 36.33 133.497 36.15C133.89 35.97 134.337 35.88 134.837 35.88C135.337 35.88 135.783 35.97 136.177 36.15C136.57 36.33 136.9 36.5833 137.167 36.91C137.44 37.23 137.647 37.6133 137.787 38.06C137.933 38.5 138.007 38.98 138.007 39.5C138.007 40.02 137.933 40.5033 137.787 40.95C137.647 41.39 137.44 41.7733 137.167 42.1C136.9 42.42 136.57 42.67 136.177 42.85C135.783 43.03 135.337 43.12 134.837 43.12C134.337 43.12 133.89 43.03 133.497 42.85C133.103 42.67 132.77 42.42 132.497 42.1C132.23 41.7733 132.023 41.39 131.877 40.95C131.737 40.5033 131.667 40.02 131.667 39.5ZM132.737 39.5C132.737 39.9267 132.78 40.33 132.867 40.71C132.96 41.0833 133.097 41.41 133.277 41.69C133.457 41.97 133.683 42.1933 133.957 42.36C134.23 42.52 134.553 42.6 134.927 42.6C135.267 42.6 135.563 42.52 135.817 42.36C136.07 42.1933 136.277 41.97 136.437 41.69C136.603 41.41 136.727 41.0833 136.807 40.71C136.893 40.33 136.937 39.9267 136.937 39.5C136.937 39.0733 136.893 38.6733 136.807 38.3C136.72 37.92 136.587 37.59 136.407 37.31C136.227 37.03 136 36.81 135.727 36.65C135.453 36.4833 135.13 36.4 134.757 36.4C134.39 36.4 134.077 36.4833 133.817 36.65C133.563 36.81 133.357 37.03 133.197 37.31C133.037 37.59 132.92 37.92 132.847 38.3C132.773 38.6733 132.737 39.0733 132.737 39.5ZM146.471 42.31C146.551 42.39 146.654 42.46 146.781 42.52C146.907 42.5733 147.097 42.6 147.351 42.6C147.564 42.6 147.764 42.5733 147.951 42.52C148.137 42.46 148.297 42.3767 148.431 42.27C148.571 42.1567 148.681 42.0233 148.761 41.87C148.841 41.71 148.881 41.53 148.881 41.33C148.881 41.0633 148.797 40.84 148.631 40.66C148.471 40.48 148.267 40.32 148.021 40.18C147.781 40.04 147.517 39.9033 147.231 39.77C146.944 39.6367 146.677 39.48 146.431 39.3C146.191 39.1133 145.987 38.8933 145.821 38.64C145.661 38.38 145.581 38.0567 145.581 37.67C145.581 37.39 145.631 37.14 145.731 36.92C145.831 36.7 145.971 36.5133 146.151 36.36C146.337 36.2067 146.557 36.09 146.811 36.01C147.064 35.9233 147.347 35.88 147.661 35.88C148.067 35.88 148.437 35.9133 148.771 35.98C149.111 36.04 149.377 36.1167 149.571 36.21C149.571 36.3233 149.561 36.4567 149.541 36.61C149.527 36.7567 149.507 36.91 149.481 37.07C149.461 37.23 149.437 37.3867 149.411 37.54C149.384 37.6867 149.357 37.8167 149.331 37.93H149.071L148.671 36.56C148.551 36.5067 148.397 36.4667 148.211 36.44C148.031 36.4133 147.837 36.4 147.631 36.4C147.291 36.4 147.017 36.4967 146.811 36.69C146.604 36.8767 146.501 37.14 146.501 37.48C146.501 37.7533 146.581 37.9833 146.741 38.17C146.907 38.3567 147.114 38.5233 147.361 38.67C147.607 38.8167 147.871 38.96 148.151 39.1C148.437 39.2333 148.704 39.39 148.951 39.57C149.197 39.75 149.401 39.9633 149.561 40.21C149.727 40.4567 149.811 40.7633 149.811 41.13C149.811 41.43 149.754 41.7033 149.641 41.95C149.534 42.1967 149.377 42.4067 149.171 42.58C148.964 42.7533 148.711 42.8867 148.411 42.98C148.111 43.0733 147.771 43.12 147.391 43.12C146.971 43.12 146.594 43.07 146.261 42.97C145.927 42.87 145.691 42.7633 145.551 42.65C145.557 42.5367 145.567 42.4 145.581 42.24C145.601 42.08 145.621 41.9167 145.641 41.75C145.667 41.5767 145.694 41.41 145.721 41.25C145.747 41.09 145.774 40.9533 145.801 40.84H146.061L146.471 42.31ZM152.862 39.5C152.862 38.98 152.932 38.5 153.072 38.06C153.219 37.6133 153.425 37.23 153.692 36.91C153.965 36.5833 154.299 36.33 154.692 36.15C155.085 35.97 155.532 35.88 156.032 35.88C156.532 35.88 156.979 35.97 157.372 36.15C157.765 36.33 158.095 36.5833 158.362 36.91C158.635 37.23 158.842 37.6133 158.982 38.06C159.129 38.5 159.202 38.98 159.202 39.5C159.202 40.02 159.129 40.5033 158.982 40.95C158.842 41.39 158.635 41.7733 158.362 42.1C158.095 42.42 157.765 42.67 157.372 42.85C156.979 43.03 156.532 43.12 156.032 43.12C155.532 43.12 155.085 43.03 154.692 42.85C154.299 42.67 153.965 42.42 153.692 42.1C153.425 41.7733 153.219 41.39 153.072 40.95C152.932 40.5033 152.862 40.02 152.862 39.5ZM153.932 39.5C153.932 39.9267 153.975 40.33 154.062 40.71C154.155 41.0833 154.292 41.41 154.472 41.69C154.652 41.97 154.879 42.1933 155.152 42.36C155.425 42.52 155.749 42.6 156.122 42.6C156.462 42.6 156.759 42.52 157.012 42.36C157.265 42.1933 157.472 41.97 157.632 41.69C157.799 41.41 157.922 41.0833 158.002 40.71C158.089 40.33 158.132 39.9267 158.132 39.5C158.132 39.0733 158.089 38.6733 158.002 38.3C157.915 37.92 157.782 37.59 157.602 37.31C157.422 37.03 157.195 36.81 156.922 36.65C156.649 36.4833 156.325 36.4 155.952 36.4C155.585 36.4 155.272 36.4833 155.012 36.65C154.759 36.81 154.552 37.03 154.392 37.31C154.232 37.59 154.115 37.92 154.042 38.3C153.969 38.6733 153.932 39.0733 153.932 39.5ZM167.204 41.18H167.464C167.498 41.3667 167.528 41.6033 167.554 41.89C167.581 42.17 167.588 42.4433 167.574 42.71C167.474 42.79 167.354 42.8567 167.214 42.91C167.074 42.9567 166.924 42.9967 166.764 43.03C166.611 43.0633 166.451 43.0867 166.284 43.1C166.124 43.1133 165.971 43.12 165.824 43.12C165.264 43.12 164.764 43.05 164.324 42.91C163.884 42.7633 163.511 42.5433 163.204 42.25C162.904 41.9567 162.671 41.5833 162.504 41.13C162.344 40.67 162.264 40.1267 162.264 39.5C162.264 38.8467 162.354 38.2933 162.534 37.84C162.714 37.38 162.958 37.0067 163.264 36.72C163.571 36.4267 163.928 36.2133 164.334 36.08C164.741 35.9467 165.168 35.88 165.614 35.88C166.054 35.88 166.424 35.91 166.724 35.97C167.024 36.0233 167.288 36.1067 167.514 36.22C167.514 36.3267 167.511 36.4533 167.504 36.6C167.498 36.74 167.488 36.89 167.474 37.05C167.461 37.21 167.444 37.3667 167.424 37.52C167.404 37.6733 167.384 37.8133 167.364 37.94H167.104L166.584 36.5C166.511 36.46 166.388 36.4333 166.214 36.42C166.048 36.4067 165.881 36.4 165.714 36.4C165.381 36.4 165.064 36.4633 164.764 36.59C164.471 36.71 164.211 36.9 163.984 37.16C163.764 37.4133 163.588 37.7367 163.454 38.13C163.321 38.5167 163.254 38.9733 163.254 39.5C163.254 39.9733 163.314 40.4033 163.434 40.79C163.554 41.17 163.728 41.4967 163.954 41.77C164.181 42.0367 164.458 42.2433 164.784 42.39C165.111 42.53 165.481 42.6 165.894 42.6C166.114 42.6 166.298 42.5833 166.444 42.55C166.591 42.5167 166.688 42.4733 166.734 42.42L167.204 41.18ZM173.21 43H170.65V42.71C170.91 42.59 171.177 42.51 171.45 42.47V36.54C171.317 36.5133 171.183 36.48 171.05 36.44C170.917 36.3933 170.783 36.3433 170.65 36.29V36H173.21V36.29C173.09 36.3433 172.96 36.3933 172.82 36.44C172.68 36.48 172.543 36.5133 172.41 36.54V42.47C172.55 42.4967 172.69 42.53 172.83 42.57C172.97 42.61 173.097 42.6567 173.21 42.71V43ZM177.906 43H175.686V42.71C175.926 42.6033 176.166 42.5233 176.406 42.47L178.936 35.88H179.226L181.756 42.47C181.889 42.4967 182.019 42.5267 182.146 42.56C182.279 42.5933 182.402 42.6433 182.516 42.71V43H179.956V42.71C180.089 42.6567 180.226 42.61 180.366 42.57C180.506 42.53 180.642 42.4967 180.776 42.47L180.096 40.64H177.706L177.046 42.47C177.326 42.51 177.612 42.59 177.906 42.71V43ZM177.906 40.12H179.926L179.136 38L178.946 37.14H178.926L178.676 38.02L177.906 40.12ZM184.802 36H187.542V36.29C187.382 36.35 187.222 36.4033 187.062 36.45C186.902 36.49 186.742 36.52 186.582 36.54V42.48H188.882L189.472 40.87H189.732C189.752 41.01 189.768 41.1733 189.782 41.36C189.802 41.54 189.815 41.73 189.822 41.93C189.835 42.1233 189.842 42.3133 189.842 42.5C189.842 42.6867 189.838 42.8533 189.832 43H184.802V42.71C184.962 42.6367 185.108 42.5833 185.242 42.55C185.375 42.5167 185.502 42.49 185.622 42.47V36.54C185.468 36.5133 185.322 36.48 185.182 36.44C185.042 36.3933 184.915 36.3433 184.802 36.29V36Z" fill="#201817"/>
<path d="M78.116 11.3C82.0993 11.3 84.091 12.6083 84.091 15.225C84.091 16.2917 83.7493 17.1833 83.066 17.9C82.3827 18.6 81.391 19.025 80.091 19.175C81.7743 19.4917 82.9993 19.9833 83.766 20.65C84.5327 21.3167 84.916 22.2583 84.916 23.475C84.916 25.0083 84.266 26.15 82.966 26.9C81.666 27.6333 79.9743 28 77.891 28H71.116V27.4L72.941 27.15V12.125L70.816 11.875V11.3H78.116ZM76.966 19.675L76.316 19.7V27.3C76.6327 27.3833 76.9993 27.425 77.416 27.425C78.566 27.425 79.5327 27.1083 80.316 26.475C81.0993 25.825 81.491 24.7583 81.491 23.275C81.491 21.3917 80.6743 20.2667 79.041 19.9C78.3743 19.75 77.6827 19.675 76.966 19.675ZM76.316 11.975V18.975H76.916C78.0827 18.975 78.991 18.6583 79.641 18.025C80.291 17.3917 80.616 16.475 80.616 15.275C80.616 14.0583 80.366 13.2083 79.866 12.725C79.366 12.225 78.566 11.975 77.466 11.975H76.316ZM103.639 28H96.2893V27.4L98.3143 27.175L96.0143 21.425H90.3893L88.3893 26.75L90.6143 27.4V28H85.3893V27.4L87.2893 26.75L93.3393 11.3H95.0893L101.714 27.175L103.639 27.4V28ZM95.6393 20.5L93.1893 14.425L90.7393 20.5H95.6393ZM104.778 27.15C104.078 26.7 103.728 26.125 103.728 25.425C103.728 24.4583 104.495 23.8583 106.028 23.625C106.295 25.175 106.861 26.25 107.728 26.85C108.495 27.3833 109.303 27.65 110.153 27.65C111.02 27.65 111.761 27.3917 112.378 26.875C113.011 26.3417 113.328 25.475 113.328 24.275C113.328 23.375 113.003 22.6667 112.353 22.15C111.72 21.6167 110.911 21.15 109.928 20.75C108.945 20.35 108.278 20.075 107.928 19.925C107.578 19.7583 107.128 19.5167 106.578 19.2C106.045 18.8833 105.645 18.5833 105.378 18.3C104.711 17.5333 104.378 16.65 104.378 15.65C104.378 14.0833 104.961 12.9 106.128 12.1C107.295 11.3 108.92 10.9 111.003 10.9C112.186 10.9 113.561 11.0333 115.128 11.3V15H114.303L113.303 12.05C112.47 11.7833 111.62 11.65 110.753 11.65C109.903 11.65 109.161 11.925 108.528 12.475C107.895 13.0083 107.578 13.8083 107.578 14.875C107.578 16.0917 108.128 17 109.228 17.6C109.778 17.8833 110.428 18.1667 111.178 18.45C111.928 18.7333 112.47 18.95 112.803 19.1C113.136 19.2333 113.578 19.4583 114.128 19.775C114.678 20.075 115.086 20.375 115.353 20.675C115.62 20.975 115.861 21.375 116.078 21.875C116.295 22.3583 116.403 22.8917 116.403 23.475C116.403 24.8917 115.803 26.05 114.603 26.95C113.403 27.85 111.761 28.3 109.678 28.3C107.611 28.3 105.978 27.9167 104.778 27.15ZM118.058 28V27.4L120.233 27.175V12.125L118.058 11.9V11.3H130.808V14.85H130.008L129.033 12.2L123.558 12.125V18.85H128.408L129.183 17H129.883V21.65H129.158L128.408 19.75H123.558V27.2L129.783 27.125L131.083 24.275H131.883L131.583 28H118.058ZM144.894 19.275H145.744C148.411 19.275 149.744 18 149.744 15.45C149.744 14.2167 149.486 13.325 148.969 12.775C148.452 12.2083 147.636 11.925 146.519 11.925C145.802 11.925 145.261 11.9583 144.894 12.025V19.275ZM144.469 11.25L147.269 11.175C151.236 11.175 153.219 12.6 153.219 15.45C153.219 16.7167 152.769 17.75 151.869 18.55C150.969 19.35 149.811 19.75 148.394 19.75H147.819C149.719 20 151.019 20.575 151.719 21.475C152.436 22.375 152.794 23.7417 152.794 25.575C152.794 26.7083 153.027 27.4 153.494 27.65C153.661 27.75 153.902 27.8 154.219 27.8C154.552 27.8 155.002 27.6667 155.569 27.4L155.594 28C154.694 28.3833 153.777 28.575 152.844 28.575C150.977 28.575 149.852 27.875 149.469 26.475C149.336 25.8917 149.269 25.1667 149.269 24.3C149.269 23.4167 149.211 22.7417 149.094 22.275C148.994 21.7917 148.836 21.4 148.619 21.1C148.136 20.3667 147.227 20 145.894 20H144.894V27.175L146.794 27.4V28H139.744V27.4L141.594 27.2V12.075L139.444 11.775V11.15C140.844 11.2167 142.102 11.25 143.219 11.25H144.469ZM173.475 19.6C173.475 22.1 172.691 24.175 171.125 25.825C169.575 27.4583 167.475 28.275 164.825 28.275C162.191 28.275 160.091 27.4583 158.525 25.825C156.975 24.175 156.2 22.1 156.2 19.6C156.2 17.1 156.975 15.0333 158.525 13.4C160.091 11.75 162.191 10.925 164.825 10.925C167.475 10.925 169.575 11.75 171.125 13.4C172.691 15.0333 173.475 17.1 173.475 19.6ZM164.875 27.5C168.075 27.5 169.675 24.8667 169.675 19.6C169.675 17.0667 169.308 15.1167 168.575 13.75C167.858 12.3833 166.616 11.7 164.85 11.7C163.083 11.7 161.825 12.3833 161.075 13.75C160.341 15.1167 159.975 17.0667 159.975 19.6C159.975 24.8667 161.608 27.5 164.875 27.5ZM185.533 11.125L191.033 11.35L191.183 15.9H190.283L189.433 12.625C188.283 12.2417 187.174 12.05 186.108 12.05C184.124 12.05 182.516 12.7083 181.283 14.025C180.049 15.325 179.433 17.2583 179.433 19.825C179.433 22.375 180.033 24.25 181.233 25.45C182.433 26.65 183.941 27.25 185.758 27.25C187.591 27.25 188.916 27.05 189.733 26.65L190.658 23.8H191.458L191.308 27.475C189.224 27.925 187.399 28.15 185.833 28.15C184.283 28.15 182.958 28.025 181.858 27.775C180.758 27.5083 179.724 27.0833 178.758 26.5C177.791 25.9167 177.033 25.075 176.483 23.975C175.949 22.875 175.683 21.5583 175.683 20.025C175.683 18.4917 175.958 17.1417 176.508 15.975C177.074 14.7917 177.833 13.8583 178.783 13.175C180.683 11.8083 182.933 11.125 185.533 11.125ZM204.676 11.3H209.751V11.875L207.701 12.55L201.076 18.55L209.426 27.15L211.426 27.3V28H203.426V27.35L205.201 27.175L198.851 20.4V27.175L201.026 27.4V28H193.351V27.4L195.526 27.175V12.125L193.351 11.9V11.3H201.026V11.9L198.851 12.125V19.275L206.451 12.45L204.676 11.9V11.3Z" fill="#201817"/>
<g clip-path="url(#clip0)">
<path d="M38.1825 4.70061C49.3857 11.9761 52.5748 26.9793 45.2993 38.1826C38.0238 49.3858 23.0205 52.5749 11.8173 45.2994" stroke="#201817" stroke-width="1.5"/>
<path d="M11.8174 45.2995C0.614143 38.024 -2.5749 23.0208 4.70058 11.8175C11.9761 0.614271 26.9793 -2.57478 38.1826 4.70068" stroke="#201817" stroke-width="1.5"/>
<g opacity="0.95814">
<path d="M29.7946 8.16545L30.4839 5.59353L30.086 5.48742L29.3978 8.05663C29.5304 8.09132 29.6624 8.12764 29.7946 8.16545ZM20.8732 8.00971L20.1811 5.42681L19.7836 5.53333L20.4753 8.11362C20.6075 8.0773 20.7401 8.04266 20.8732 8.00971ZM13.0768 12.3007L11.1297 10.3539L10.8388 10.6446L12.7832 12.5894C12.88 12.4918 12.9778 12.3957 13.0768 12.3007ZM8.32961 20.3454L5.64282 19.6255L5.53635 20.0231L8.22839 20.7447C8.26053 20.6116 8.29436 20.4781 8.32961 20.3454ZM8.36585 29.3311L5.59685 30.0731L5.70372 30.4708L8.47891 29.7271C8.43998 29.5953 8.40197 29.4636 8.36585 29.3311ZM12.7844 36.9716L10.7323 39.0238L11.0231 39.3152L13.0784 37.2601C12.9792 37.1653 12.8809 37.0687 12.7844 36.9716ZM20.4515 41.4442L19.7111 44.2076L20.1088 44.3141L20.8496 41.5491C20.7169 41.5156 20.5843 41.4809 20.4515 41.4442ZM29.419 41.493L30.1591 44.2538L30.5562 44.147L29.8159 41.3833C29.6842 41.4213 29.5518 41.458 29.419 41.493ZM37.2246 37.0305L39.1839 38.99L39.475 38.699L37.5126 36.7367C37.4183 36.8358 37.3217 36.934 37.2246 37.0305ZM41.605 29.687L44.2569 30.3973L44.3638 29.9999L41.718 29.2912C41.6822 29.4231 41.6444 29.5553 41.605 29.687ZM41.8448 20.7861L44.4238 20.0951L44.3173 19.6976L41.7451 20.3868C41.7797 20.5195 41.8134 20.6529 41.8448 20.7861ZM37.5142 12.8238L39.3684 10.9696L39.0773 10.6784L37.2257 12.5299C37.3231 12.627 37.4198 12.7246 37.5142 12.8238ZM14.8813 7.49835L15.0903 7.85996L15.4467 7.65417L15.2377 7.29257L14.8813 7.49835ZM15.5077 8.58332L15.9254 9.30689L16.2821 9.10075L15.8643 8.37718L15.5077 8.58332ZM33.8812 40.4064L34.298 41.129L34.6543 40.9236L34.2376 40.2006L33.8812 40.4064ZM34.716 41.8522L34.9246 42.2145L35.281 42.0087L35.0724 41.6464L34.716 41.8522ZM41.9907 15.0043L42.3523 14.7953L42.5584 15.1519L42.1964 15.3607L41.9907 15.0043ZM40.5443 15.8392L41.2675 15.4213L41.4733 15.7777L40.7504 16.1959L40.5443 15.8392ZM8.72143 34.2124L9.44479 33.795L9.65058 34.1514L8.92721 34.5688L8.72143 34.2124ZM7.63682 34.839L7.99822 34.6304L8.204 34.9868L7.84225 35.1952L7.63682 34.839ZM25.012 4.78405L25.0114 5.2015L25.4234 5.20169L25.4232 4.78384L25.012 4.78405ZM25.0117 6.03664L25.0119 6.87179L25.4235 6.87178L25.4232 6.03663L25.0117 6.03664ZM25.0118 42.7824L25.012 43.6176L25.4236 43.6176L25.4234 42.7824L25.0118 42.7824ZM25.0121 44.4521L25.012 44.8704L25.4236 44.8704L25.424 44.4523L25.0121 44.4521ZM44.5208 24.8513L44.9384 24.8515L44.9387 25.2627L44.5208 25.2629L44.5208 24.8513ZM42.8505 24.8518L43.6857 24.8516L43.6857 25.2631L42.8507 25.263L42.8505 24.8518ZM6.10473 24.8519L6.93968 24.852L6.93989 25.2633L6.10474 25.2635L6.10473 24.8519ZM4.85214 24.8516L5.26979 24.8518L5.2696 25.2637L4.85215 25.2632L4.85214 24.8516Z" fill="#201817"/>
</g>
<g opacity="0.95814">
<path d="M11.2086 14.4128L7.80669 14.4129L9.46445 17.2848C9.65097 16.8992 9.85331 16.5175 10.0708 16.1407C10.4203 15.5355 10.8 14.9592 11.2086 14.4128Z" fill="#201817"/>
<path d="M39.35 34.4561L42.5226 34.4557L40.8951 31.6374C40.6338 32.2407 40.3347 32.8361 39.998 33.4192C39.7927 33.775 39.5759 34.1208 39.35 34.4561Z" fill="#201817"/>
</g>
<g opacity="0.95814">
<path d="M9.94169 32.1552C9.8242 31.9067 9.71352 31.6556 9.60851 31.402L8.99021 31.6572L9.30355 32.4183L9.94169 32.1552ZM8.61463 28.0223C8.56499 27.7526 8.52208 27.4812 8.48623 27.2091L7.82985 27.294L7.93556 28.1102L8.61463 28.0223ZM11.2393 35.571L11.7733 35.1631C11.9397 35.3803 12.1118 35.5942 12.2898 35.8045L11.7396 36.2249L11.2393 35.571ZM22.7789 41.5376L22.6891 42.211L23.5049 42.3199L23.598 41.6261C23.3254 41.6036 23.0515 41.5743 22.7789 41.5376ZM27.1165 41.5444L27.2041 42.22L28.0199 42.114L27.93 41.4186C27.6601 41.4672 27.3887 41.5091 27.1165 41.5444ZM31.3088 40.4337L31.5663 41.0595L32.3274 40.7456L32.0626 40.1028C31.8135 40.219 31.5624 40.3296 31.3088 40.4337ZM35.0747 38.2788L35.4807 38.8103L36.1346 38.31L35.7174 37.764C35.5071 37.9415 35.2924 38.1132 35.0747 38.2788ZM41.35 28.088L42.0118 28.1764L42.1204 27.3603L41.4805 27.2751C41.4439 27.5467 41.4001 27.8176 41.35 28.088ZM41.5781 23.7475L42.2354 23.6627L42.1291 22.8457L41.4933 22.9287C41.5283 23.2007 41.5569 23.4739 41.5781 23.7475ZM40.6759 19.4944L41.283 19.2447L40.9689 18.4831L40.3826 18.7249C40.4868 18.9789 40.5848 19.2356 40.6759 19.4944ZM38.7062 15.616L39.2192 15.223L38.7196 14.5696L38.2231 14.9488C38.39 15.1677 38.5505 15.3901 38.7062 15.616ZM28.0012 8.66978L28.0856 8.03794L27.2697 7.92904L27.1882 8.54114C27.4596 8.57716 27.7305 8.61998 28.0012 8.66978ZM23.6544 8.45092L23.5719 7.8144L22.7554 7.92047L22.8353 8.53784C23.1074 8.50198 23.3802 8.47318 23.6544 8.45092ZM19.3996 9.36443L19.1533 8.76695L18.3925 9.08049L18.6308 9.6596C18.8847 9.5548 19.1412 9.45624 19.3996 9.36443ZM15.5258 11.3449L15.1324 10.8302L14.4784 11.3299L14.8598 11.8291C15.0784 11.6621 15.3005 11.5004 15.5258 11.3449ZM8.48342 22.866L7.83877 22.7799L7.72951 23.5956L8.39666 23.6847C8.41876 23.4118 8.44769 23.1386 8.48342 22.866Z" fill="#201817"/>
</g>
<rect x="37.473" y="24.4662" width="1.66667" height="20.5555" transform="rotate(119.825 37.473 24.4662)" fill="#201817"/>
<rect x="31.4255" y="12.6744" width="1.66667" height="27.7778" transform="rotate(29.8251 31.4255 12.6744)" fill="#201817"/>
<path d="M36.316 7.82922L36.2892 7.87556L36.4455 8.46008L35.3085 10.4294L35.2404 9.92673L34.7262 6.91139L33.9292 6.45124L33.9025 6.49758L33.9947 7.00135L32.4912 9.60553L31.9066 9.76277L31.88 9.80875L32.8435 10.365L32.8701 10.319L32.7136 9.73394L34.0644 7.39425L34.7576 11.4701L34.943 11.5771L36.6683 8.5887L37.2527 8.43182L37.2794 8.38548L36.316 7.82922Z" fill="#201817"/>
<path d="M15.072 42.8675C15.6651 43.2099 16.4093 43.1515 16.7839 42.5028C17.0675 42.0116 16.9847 41.5128 16.519 40.8856C16.0618 40.2756 15.9808 39.9879 16.1573 39.682C16.35 39.3484 16.6733 39.3127 16.9606 39.4785C17.3267 39.6899 17.3676 40.0899 17.0717 40.5488L17.0996 40.5968L17.8354 40.447C17.8232 40.007 17.549 39.583 17.1042 39.3262C16.613 39.0426 15.9103 38.9648 15.5387 39.6086C15.2843 40.0491 15.364 40.521 15.81 41.1183C16.289 41.7655 16.3737 42.0682 16.165 42.4297C15.9296 42.8374 15.5175 42.8771 15.1375 42.6577C14.6693 42.3878 14.5202 41.8755 14.7723 41.3105L14.5638 41.1901L14.002 42.1632L14.0439 42.1869L14.4136 42.1352C14.5284 42.4177 14.7476 42.6802 15.072 42.8675Z" fill="#201817"/>
</g>
<defs>
<clipPath id="clip0">
<rect width="50" height="50" fill="white"/>
</clipPath>
</defs>
</svg>
