<svg width="173" height="40" viewBox="0 0 173 40" fill="none" xmlns="http://www.w3.org/2000/svg">
<path d="M70.3547 36.448C70.4187 36.512 70.5014 36.568 70.6027 36.616C70.704 36.6587 70.856 36.68 71.0587 36.68C71.2294 36.68 71.3894 36.6587 71.5387 36.616C71.688 36.568 71.816 36.5013 71.9227 36.416C72.0347 36.3253 72.1227 36.2187 72.1867 36.096C72.2507 35.968 72.2827 35.824 72.2827 35.664C72.2827 35.4507 72.216 35.272 72.0827 35.128C71.9547 34.984 71.792 34.856 71.5947 34.744C71.4027 34.632 71.192 34.5227 70.9627 34.416C70.7334 34.3093 70.52 34.184 70.3227 34.04C70.1307 33.8907 69.968 33.7147 69.8347 33.512C69.7067 33.304 69.6427 33.0453 69.6427 32.736C69.6427 32.512 69.6827 32.312 69.7627 32.136C69.8427 31.96 69.9547 31.8107 70.0987 31.688C70.248 31.5653 70.424 31.472 70.6267 31.408C70.8294 31.3387 71.056 31.304 71.3067 31.304C71.632 31.304 71.928 31.3307 72.1947 31.384C72.4667 31.432 72.68 31.4933 72.8347 31.568C72.8347 31.6587 72.8267 31.7653 72.8107 31.888C72.8 32.0053 72.784 32.128 72.7627 32.256C72.7467 32.384 72.728 32.5093 72.7067 32.632C72.6854 32.7493 72.664 32.8533 72.6427 32.944H72.4347L72.1147 31.848C72.0187 31.8053 71.896 31.7733 71.7467 31.752C71.6027 31.7307 71.448 31.72 71.2827 31.72C71.0107 31.72 70.792 31.7973 70.6267 31.952C70.4614 32.1013 70.3787 32.312 70.3787 32.584C70.3787 32.8027 70.4427 32.9867 70.5707 33.136C70.704 33.2853 70.8694 33.4187 71.0667 33.536C71.264 33.6533 71.4747 33.768 71.6987 33.88C71.928 33.9867 72.1414 34.112 72.3387 34.256C72.536 34.4 72.6987 34.5707 72.8267 34.768C72.96 34.9653 73.0267 35.2107 73.0267 35.504C73.0267 35.744 72.9814 35.9627 72.8907 36.16C72.8054 36.3573 72.68 36.5253 72.5147 36.664C72.3494 36.8027 72.1467 36.9093 71.9067 36.984C71.6667 37.0587 71.3947 37.096 71.0907 37.096C70.7547 37.096 70.4534 37.056 70.1867 36.976C69.92 36.896 69.7307 36.8107 69.6187 36.72C69.624 36.6293 69.632 36.52 69.6427 36.392C69.6587 36.264 69.6747 36.1333 69.6907 36C69.712 35.8613 69.7334 35.728 69.7547 35.6C69.776 35.472 69.7974 35.3627 69.8187 35.272H70.0267L70.3547 36.448ZM75.4677 34.2C75.4677 33.784 75.5237 33.4 75.6357 33.048C75.7531 32.6907 75.9184 32.384 76.1317 32.128C76.3504 31.8667 76.6171 31.664 76.9317 31.52C77.2464 31.376 77.6037 31.304 78.0037 31.304C78.4037 31.304 78.7611 31.376 79.0757 31.52C79.3904 31.664 79.6544 31.8667 79.8677 32.128C80.0864 32.384 80.2517 32.6907 80.3637 33.048C80.4811 33.4 80.5397 33.784 80.5397 34.2C80.5397 34.616 80.4811 35.0027 80.3637 35.36C80.2517 35.712 80.0864 36.0187 79.8677 36.28C79.6544 36.536 79.3904 36.736 79.0757 36.88C78.7611 37.024 78.4037 37.096 78.0037 37.096C77.6037 37.096 77.2464 37.024 76.9317 36.88C76.6171 36.736 76.3504 36.536 76.1317 36.28C75.9184 36.0187 75.7531 35.712 75.6357 35.36C75.5237 35.0027 75.4677 34.616 75.4677 34.2ZM76.3237 34.2C76.3237 34.5413 76.3584 34.864 76.4277 35.168C76.5024 35.4667 76.6117 35.728 76.7557 35.952C76.8997 36.176 77.0811 36.3547 77.2997 36.488C77.5184 36.616 77.7771 36.68 78.0757 36.68C78.3477 36.68 78.5851 36.616 78.7877 36.488C78.9904 36.3547 79.1557 36.176 79.2837 35.952C79.4171 35.728 79.5157 35.4667 79.5797 35.168C79.6491 34.864 79.6837 34.5413 79.6837 34.2C79.6837 33.8587 79.6491 33.5387 79.5797 33.24C79.5104 32.936 79.4037 32.672 79.2597 32.448C79.1157 32.224 78.9344 32.048 78.7157 31.92C78.4971 31.7867 78.2384 31.72 77.9397 31.72C77.6464 31.72 77.3957 31.7867 77.1877 31.92C76.9851 32.048 76.8197 32.224 76.6917 32.448C76.5637 32.672 76.4704 32.936 76.4117 33.24C76.3531 33.5387 76.3237 33.8587 76.3237 34.2ZM86.9416 35.544H87.1496C87.1763 35.6933 87.2003 35.8827 87.2216 36.112C87.243 36.336 87.2483 36.5547 87.2376 36.768C87.1576 36.832 87.0616 36.8853 86.9496 36.928C86.8376 36.9653 86.7176 36.9973 86.5896 37.024C86.467 37.0507 86.339 37.0693 86.2056 37.08C86.0776 37.0907 85.955 37.096 85.8376 37.096C85.3896 37.096 84.9896 37.04 84.6376 36.928C84.2856 36.8107 83.987 36.6347 83.7416 36.4C83.5016 36.1653 83.315 35.8667 83.1816 35.504C83.0536 35.136 82.9896 34.7013 82.9896 34.2C82.9896 33.6773 83.0616 33.2347 83.2056 32.872C83.3496 32.504 83.5443 32.2053 83.7896 31.976C84.035 31.7413 84.3203 31.5707 84.6456 31.464C84.971 31.3573 85.3123 31.304 85.6696 31.304C86.0216 31.304 86.3176 31.328 86.5576 31.376C86.7976 31.4187 87.0083 31.4853 87.1896 31.576C87.1896 31.6613 87.187 31.7627 87.1816 31.88C87.1763 31.992 87.1683 32.112 87.1576 32.24C87.147 32.368 87.1336 32.4933 87.1176 32.616C87.1016 32.7387 87.0856 32.8507 87.0696 32.952H86.8616L86.4456 31.8C86.387 31.768 86.2883 31.7467 86.1496 31.736C86.0163 31.7253 85.883 31.72 85.7496 31.72C85.483 31.72 85.2296 31.7707 84.9896 31.872C84.755 31.968 84.547 32.12 84.3656 32.328C84.1896 32.5307 84.0483 32.7893 83.9416 33.104C83.835 33.4133 83.7816 33.7787 83.7816 34.2C83.7816 34.5787 83.8296 34.9227 83.9256 35.232C84.0216 35.536 84.1603 35.7973 84.3416 36.016C84.523 36.2293 84.7443 36.3947 85.0056 36.512C85.267 36.624 85.563 36.68 85.8936 36.68C86.0696 36.68 86.2163 36.6667 86.3336 36.64C86.451 36.6133 86.5283 36.5787 86.5656 36.536L86.9416 35.544ZM91.7461 37H89.6981V36.768C89.9061 36.672 90.1194 36.608 90.3381 36.576V31.832C90.2314 31.8107 90.1247 31.784 90.0181 31.752C89.9114 31.7147 89.8047 31.6747 89.6981 31.632V31.4H91.7461V31.632C91.6501 31.6747 91.5461 31.7147 91.4341 31.752C91.3221 31.784 91.2127 31.8107 91.1061 31.832V36.576C91.2181 36.5973 91.3301 36.624 91.4421 36.656C91.5541 36.688 91.6554 36.7253 91.7461 36.768V37ZM95.5026 37H93.7266V36.768C93.9186 36.6827 94.1106 36.6187 94.3026 36.576L96.3266 31.304H96.5586L98.5826 36.576C98.6892 36.5973 98.7932 36.6213 98.8946 36.648C99.0012 36.6747 99.0999 36.7147 99.1906 36.768V37H97.1426V36.768C97.2492 36.7253 97.3586 36.688 97.4706 36.656C97.5826 36.624 97.6919 36.5973 97.7986 36.576L97.2546 35.112H95.3426L94.8146 36.576C95.0386 36.608 95.2679 36.672 95.5026 36.768V37ZM95.5026 34.696H97.1186L96.4866 33L96.3346 32.312H96.3186L96.1186 33.016L95.5026 34.696ZM101.019 31.4H103.211V31.632C103.083 31.68 102.955 31.7227 102.827 31.76C102.699 31.792 102.571 31.816 102.443 31.832V36.584H104.283L104.755 35.296H104.963C104.979 35.408 104.993 35.5387 105.003 35.688C105.019 35.832 105.03 35.984 105.035 36.144C105.046 36.2987 105.051 36.4507 105.051 36.6C105.051 36.7493 105.049 36.8827 105.043 37H101.019V36.768C101.147 36.7093 101.265 36.6667 101.371 36.64C101.478 36.6133 101.579 36.592 101.675 36.576V31.832C101.553 31.8107 101.435 31.784 101.323 31.752C101.211 31.7147 101.11 31.6747 101.019 31.632V31.4ZM117.019 37H115.035V36.768C115.142 36.7253 115.249 36.6907 115.355 36.664C115.462 36.632 115.571 36.6027 115.683 36.576V32.976L115.715 32.04H115.651L115.387 32.896L113.747 37H113.539L111.979 32.896L111.691 31.96H111.619L111.627 32.976V36.576C111.729 36.5973 111.83 36.624 111.931 36.656C112.033 36.688 112.134 36.7253 112.235 36.768V37H110.563V36.768C110.665 36.7253 110.769 36.688 110.875 36.656C110.987 36.6187 111.099 36.5893 111.211 36.568V31.832C111.099 31.8107 110.987 31.784 110.875 31.752C110.769 31.7147 110.662 31.6747 110.555 31.632V31.4H112.195L113.587 35.056L113.859 35.88H113.867L114.139 35.04L115.579 31.4H117.027V31.632C116.931 31.6747 116.833 31.7147 116.731 31.752C116.63 31.784 116.526 31.8107 116.419 31.832V36.584C116.531 36.6053 116.635 36.632 116.731 36.664C116.833 36.6907 116.929 36.7253 117.019 36.768V37ZM121.293 37H119.245V36.768C119.453 36.672 119.666 36.608 119.885 36.576V31.832C119.778 31.8107 119.672 31.784 119.565 31.752C119.458 31.7147 119.352 31.6747 119.245 31.632V31.4H121.293V31.632C121.197 31.6747 121.093 31.7147 120.981 31.752C120.869 31.784 120.76 31.8107 120.653 31.832V36.576C120.765 36.5973 120.877 36.624 120.989 36.656C121.101 36.688 121.202 36.7253 121.293 36.768V37ZM124.473 36.448C124.537 36.512 124.62 36.568 124.721 36.616C124.823 36.6587 124.975 36.68 125.177 36.68C125.348 36.68 125.508 36.6587 125.657 36.616C125.807 36.568 125.935 36.5013 126.041 36.416C126.153 36.3253 126.241 36.2187 126.305 36.096C126.369 35.968 126.401 35.824 126.401 35.664C126.401 35.4507 126.335 35.272 126.201 35.128C126.073 34.984 125.911 34.856 125.713 34.744C125.521 34.632 125.311 34.5227 125.081 34.416C124.852 34.3093 124.639 34.184 124.441 34.04C124.249 33.8907 124.087 33.7147 123.953 33.512C123.825 33.304 123.761 33.0453 123.761 32.736C123.761 32.512 123.801 32.312 123.881 32.136C123.961 31.96 124.073 31.8107 124.217 31.688C124.367 31.5653 124.543 31.472 124.745 31.408C124.948 31.3387 125.175 31.304 125.425 31.304C125.751 31.304 126.047 31.3307 126.313 31.384C126.585 31.432 126.799 31.4933 126.953 31.568C126.953 31.6587 126.945 31.7653 126.929 31.888C126.919 32.0053 126.903 32.128 126.881 32.256C126.865 32.384 126.847 32.5093 126.825 32.632C126.804 32.7493 126.783 32.8533 126.761 32.944H126.553L126.233 31.848C126.137 31.8053 126.015 31.7733 125.865 31.752C125.721 31.7307 125.567 31.72 125.401 31.72C125.129 31.72 124.911 31.7973 124.745 31.952C124.58 32.1013 124.497 32.312 124.497 32.584C124.497 32.8027 124.561 32.9867 124.689 33.136C124.823 33.2853 124.988 33.4187 125.185 33.536C125.383 33.6533 125.593 33.768 125.817 33.88C126.047 33.9867 126.26 34.112 126.457 34.256C126.655 34.4 126.817 34.5707 126.945 34.768C127.079 34.9653 127.145 35.2107 127.145 35.504C127.145 35.744 127.1 35.9627 127.009 36.16C126.924 36.3573 126.799 36.5253 126.633 36.664C126.468 36.8027 126.265 36.9093 126.025 36.984C125.785 37.0587 125.513 37.096 125.209 37.096C124.873 37.096 124.572 37.056 124.305 36.976C124.039 36.896 123.849 36.8107 123.737 36.72C123.743 36.6293 123.751 36.52 123.761 36.392C123.777 36.264 123.793 36.1333 123.809 36C123.831 35.8613 123.852 35.728 123.873 35.6C123.895 35.472 123.916 35.3627 123.937 35.272H124.145L124.473 36.448ZM130.362 36.448C130.426 36.512 130.509 36.568 130.61 36.616C130.712 36.6587 130.864 36.68 131.066 36.68C131.237 36.68 131.397 36.6587 131.546 36.616C131.696 36.568 131.824 36.5013 131.93 36.416C132.042 36.3253 132.13 36.2187 132.194 36.096C132.258 35.968 132.29 35.824 132.29 35.664C132.29 35.4507 132.224 35.272 132.09 35.128C131.962 34.984 131.8 34.856 131.602 34.744C131.41 34.632 131.2 34.5227 130.97 34.416C130.741 34.3093 130.528 34.184 130.33 34.04C130.138 33.8907 129.976 33.7147 129.842 33.512C129.714 33.304 129.65 33.0453 129.65 32.736C129.65 32.512 129.69 32.312 129.77 32.136C129.85 31.96 129.962 31.8107 130.106 31.688C130.256 31.5653 130.432 31.472 130.634 31.408C130.837 31.3387 131.064 31.304 131.314 31.304C131.64 31.304 131.936 31.3307 132.202 31.384C132.474 31.432 132.688 31.4933 132.842 31.568C132.842 31.6587 132.834 31.7653 132.818 31.888C132.808 32.0053 132.792 32.128 132.77 32.256C132.754 32.384 132.736 32.5093 132.714 32.632C132.693 32.7493 132.672 32.8533 132.65 32.944H132.442L132.122 31.848C132.026 31.8053 131.904 31.7733 131.754 31.752C131.61 31.7307 131.456 31.72 131.29 31.72C131.018 31.72 130.8 31.7973 130.634 31.952C130.469 32.1013 130.386 32.312 130.386 32.584C130.386 32.8027 130.45 32.9867 130.578 33.136C130.712 33.2853 130.877 33.4187 131.074 33.536C131.272 33.6533 131.482 33.768 131.706 33.88C131.936 33.9867 132.149 34.112 132.346 34.256C132.544 34.4 132.706 34.5707 132.834 34.768C132.968 34.9653 133.034 35.2107 133.034 35.504C133.034 35.744 132.989 35.9627 132.898 36.16C132.813 36.3573 132.688 36.5253 132.522 36.664C132.357 36.8027 132.154 36.9093 131.914 36.984C131.674 37.0587 131.402 37.096 131.098 37.096C130.762 37.096 130.461 37.056 130.194 36.976C129.928 36.896 129.738 36.8107 129.626 36.72C129.632 36.6293 129.64 36.52 129.65 36.392C129.666 36.264 129.682 36.1333 129.698 36C129.72 35.8613 129.741 35.728 129.762 35.6C129.784 35.472 129.805 35.3627 129.826 35.272H130.034L130.362 36.448ZM137.484 37H135.436V36.768C135.644 36.672 135.857 36.608 136.076 36.576V31.832C135.969 31.8107 135.862 31.784 135.756 31.752C135.649 31.7147 135.542 31.6747 135.436 31.632V31.4H137.484V31.632C137.388 31.6747 137.284 31.7147 137.172 31.752C137.06 31.784 136.95 31.8107 136.844 31.832V36.576C136.956 36.5973 137.068 36.624 137.18 36.656C137.292 36.688 137.393 36.7253 137.484 36.768V37ZM139.888 34.2C139.888 33.784 139.944 33.4 140.056 33.048C140.173 32.6907 140.339 32.384 140.552 32.128C140.771 31.8667 141.037 31.664 141.352 31.52C141.667 31.376 142.024 31.304 142.424 31.304C142.824 31.304 143.181 31.376 143.496 31.52C143.811 31.664 144.075 31.8667 144.288 32.128C144.507 32.384 144.672 32.6907 144.784 33.048C144.901 33.4 144.96 33.784 144.96 34.2C144.96 34.616 144.901 35.0027 144.784 35.36C144.672 35.712 144.507 36.0187 144.288 36.28C144.075 36.536 143.811 36.736 143.496 36.88C143.181 37.024 142.824 37.096 142.424 37.096C142.024 37.096 141.667 37.024 141.352 36.88C141.037 36.736 140.771 36.536 140.552 36.28C140.339 36.0187 140.173 35.712 140.056 35.36C139.944 35.0027 139.888 34.616 139.888 34.2ZM140.744 34.2C140.744 34.5413 140.779 34.864 140.848 35.168C140.923 35.4667 141.032 35.728 141.176 35.952C141.32 36.176 141.501 36.3547 141.72 36.488C141.939 36.616 142.197 36.68 142.496 36.68C142.768 36.68 143.005 36.616 143.208 36.488C143.411 36.3547 143.576 36.176 143.704 35.952C143.837 35.728 143.936 35.4667 144 35.168C144.069 34.864 144.104 34.5413 144.104 34.2C144.104 33.8587 144.069 33.5387 144 33.24C143.931 32.936 143.824 32.672 143.68 32.448C143.536 32.224 143.355 32.048 143.136 31.92C142.917 31.7867 142.659 31.72 142.36 31.72C142.067 31.72 141.816 31.7867 141.608 31.92C141.405 32.048 141.24 32.224 141.112 32.448C140.984 32.672 140.891 32.936 140.832 33.24C140.773 33.5387 140.744 33.8587 140.744 34.2ZM150.882 31.4H152.61V31.632C152.386 31.7813 152.167 31.888 151.954 31.952V37.096H151.498L148.594 32.688L148.282 32.064H148.258L148.33 32.688V36.488C148.549 36.5467 148.754 36.64 148.946 36.768V37H147.218V36.768C147.314 36.7093 147.415 36.6587 147.522 36.616C147.634 36.568 147.751 36.5253 147.874 36.488V31.904C147.767 31.8613 147.661 31.816 147.554 31.768C147.453 31.72 147.357 31.672 147.266 31.624V31.4H148.618L151.138 35.2L151.506 35.888H151.538L151.498 35.2V31.952C151.386 31.904 151.277 31.8533 151.17 31.8C151.069 31.7467 150.973 31.6907 150.882 31.632V31.4Z" fill="#201817"/>
<path d="M60.1408 6.64H64.1808V7.12L62.7808 7.6V20H61.4208L52.5208 9.04V19.02L54.2008 19.52V20H50.2008V19.52L51.6608 19.02V7.3L49.9208 7.12V6.64H53.6808L61.6808 16.6V7.58L60.1408 7.12V6.64ZM79.5867 13.28C79.5867 15.28 78.9601 16.94 77.7067 18.26C76.4667 19.5667 74.7867 20.22 72.6667 20.22C70.5601 20.22 68.8801 19.5667 67.6267 18.26C66.3867 16.94 65.7667 15.28 65.7667 13.28C65.7667 11.28 66.3867 9.62667 67.6267 8.32C68.8801 7 70.5601 6.34 72.6667 6.34C74.7867 6.34 76.4667 7 77.7067 8.32C78.9601 9.62667 79.5867 11.28 79.5867 13.28ZM72.7067 19.6C75.2667 19.6 76.5467 17.4933 76.5467 13.28C76.5467 11.2533 76.2534 9.69333 75.6667 8.6C75.0934 7.50667 74.1001 6.96 72.6867 6.96C71.2734 6.96 70.2667 7.50667 69.6667 8.6C69.0801 9.69333 68.7867 11.2533 68.7867 13.28C68.7867 17.4933 70.0934 19.6 72.7067 19.6ZM101.057 20H94.9369V19.52L96.6769 19.34V13.4H90.3569V19.34L92.0969 19.52V20H85.9569V19.52L87.6969 19.34V7.3L85.9569 7.12V6.64H92.0969V7.12L90.3569 7.3V12.68H96.6769V7.3L94.9369 7.12V6.64H101.057V7.12L99.3169 7.3V19.34L101.057 19.52V20ZM114.283 15.32C114.283 16.32 114.143 17.1267 113.863 17.74C113.583 18.34 113.269 18.8 112.923 19.12C112.589 19.44 112.129 19.7067 111.543 19.92C110.956 20.1333 110.269 20.24 109.483 20.24C107.563 20.24 106.129 19.8733 105.183 19.14C104.249 18.3933 103.783 17.2133 103.783 15.6V7.3L102.103 7.12V6.64H108.183V7.12L106.443 7.3V15.2C106.443 16.6933 106.703 17.7933 107.223 18.5C107.743 19.1933 108.603 19.54 109.803 19.54C111.003 19.54 111.889 19.2133 112.463 18.56C113.036 17.8933 113.323 16.7533 113.323 15.14V7.42L111.843 7.22V6.64H115.903V7.26L114.283 7.42V15.32ZM127.192 6.64H131.232V7.12L129.832 7.6V20H128.472L119.572 9.04V19.02L121.252 19.52V20H117.252V19.52L118.712 19.02V7.3L116.972 7.12V6.64H120.732L128.732 16.6V7.58L127.192 7.12V6.64ZM140.718 6.5L145.118 6.68L145.238 10.32H144.518L143.838 7.7C142.918 7.39333 142.031 7.24 141.178 7.24C139.591 7.24 138.304 7.76667 137.318 8.82C136.331 9.86 135.838 11.4067 135.838 13.46C135.838 15.5 136.318 17 137.278 17.96C138.238 18.92 139.478 19.4 140.998 19.4C141.544 19.4 142.138 19.36 142.778 19.28V14.82L141.118 14.64V14.16H146.538V14.64L145.338 14.82V19.58C143.671 19.94 142.211 20.12 140.958 20.12C139.718 20.12 138.658 20.02 137.778 19.82C136.898 19.6067 136.071 19.2667 135.298 18.8C134.524 18.3333 133.918 17.66 133.478 16.78C133.051 15.9 132.838 14.8467 132.838 13.62C132.838 12.3933 133.058 11.3133 133.498 10.38C133.951 9.43333 134.558 8.68667 135.318 8.14C136.838 7.04667 138.638 6.5 140.718 6.5ZM147.695 20V19.52L149.435 19.34V7.3L147.695 7.12V6.64H157.895V9.48H157.255L156.475 7.36L152.095 7.3V12.68H155.975L156.595 11.2H157.155V14.92H156.575L155.975 13.4H152.095V19.36L157.075 19.3L158.115 17.02H158.755L158.515 20H147.695ZM164.32 13.02H165C167.133 13.02 168.2 12 168.2 9.96C168.2 8.97333 167.993 8.26 167.58 7.82C167.167 7.36667 166.513 7.14 165.62 7.14C165.047 7.14 164.613 7.16667 164.32 7.22V13.02ZM163.98 6.6L166.22 6.54C169.393 6.54 170.98 7.68 170.98 9.96C170.98 10.9733 170.62 11.8 169.9 12.44C169.18 13.08 168.253 13.4 167.12 13.4H166.66C168.18 13.6 169.22 14.06 169.78 14.78C170.353 15.5 170.64 16.5933 170.64 18.06C170.64 18.9667 170.827 19.52 171.2 19.72C171.333 19.8 171.527 19.84 171.78 19.84C172.047 19.84 172.407 19.7333 172.86 19.52L172.88 20C172.16 20.3067 171.427 20.46 170.68 20.46C169.187 20.46 168.287 19.9 167.98 18.78C167.873 18.3133 167.82 17.7333 167.82 17.04C167.82 16.3333 167.773 15.7933 167.68 15.42C167.6 15.0333 167.473 14.72 167.3 14.48C166.913 13.8933 166.187 13.6 165.12 13.6H164.32V19.34L165.84 19.52V20H160.2V19.52L161.68 19.36V7.26L159.96 7.02V6.52C161.08 6.57333 162.087 6.6 162.98 6.6H163.98Z" fill="#201817"/>
<g clip-path="url(#clip0)">
<path d="M30.546 3.76029C39.5086 9.58067 42.0598 21.5833 36.2394 30.5459C30.4191 39.5085 18.4164 42.0597 9.45385 36.2393" stroke="#201817" stroke-width="1.5"/>
<path d="M9.4541 36.2395C0.491509 30.4191 -2.05972 18.4165 3.76066 9.45391C9.58104 0.491317 21.5837 -2.05992 30.5463 3.76045" stroke="#201817" stroke-width="1.5"/>
<g opacity="0.95814">
<path d="M23.8354 6.53211L24.3868 4.47458L24.0685 4.38969L23.518 6.44506C23.624 6.47281 23.7296 6.50187 23.8354 6.53211ZM16.6983 6.40753L16.1446 4.34121L15.8266 4.42642L16.38 6.49065C16.4857 6.46159 16.5918 6.43389 16.6983 6.40753ZM10.4611 9.84035L8.90343 8.2829L8.67071 8.51544L10.2263 10.0713C10.3037 9.99317 10.3819 9.91629 10.4611 9.84035ZM6.6634 16.2761L4.51396 15.7001L4.42879 16.0182L6.58242 16.5955C6.60813 16.4891 6.6352 16.3823 6.6634 16.2761ZM6.69239 23.4646L4.47719 24.0582L4.56269 24.3764L6.78283 23.7815C6.75169 23.676 6.72128 23.5707 6.69239 23.4646ZM10.2273 29.577L8.58555 31.2188L8.8182 31.4519L10.4624 29.8078C10.383 29.732 10.3045 29.6547 10.2273 29.577ZM16.3609 33.1551L15.7686 35.3658L16.0867 35.451L16.6794 33.239C16.5732 33.2123 16.4672 33.1845 16.3609 33.1551ZM23.5349 33.1942L24.127 35.4028L24.4447 35.3174L23.8525 33.1064C23.7471 33.1368 23.6412 33.1662 23.5349 33.1942ZM29.7794 29.6241L31.3468 31.1918L31.5797 30.9589L30.0098 29.3891C29.9343 29.4684 29.857 29.5469 29.7794 29.6241ZM33.2837 23.7493L35.4053 24.3176L35.4907 23.9997L33.3741 23.4327C33.3455 23.5383 33.3152 23.644 33.2837 23.7493ZM33.4756 16.6287L35.5388 16.0758L35.4535 15.7578L33.3958 16.3092C33.4235 16.4153 33.4504 16.5221 33.4756 16.6287ZM30.011 10.2588L31.4944 8.7754L31.2616 8.54251L29.7803 10.0236C29.8582 10.1013 29.9356 10.1794 30.011 10.2588ZM11.9047 5.99844L12.0719 6.28772L12.3571 6.1231L12.1899 5.83381L11.9047 5.99844ZM12.4058 6.86641L12.74 7.44527L13.0254 7.28035L12.6912 6.7015L12.4058 6.86641ZM27.1046 32.3249L27.4381 32.9029L27.7231 32.7386L27.3898 32.1602L27.1046 32.3249ZM27.7725 33.4815L27.9394 33.7714L28.2245 33.6067L28.0577 33.3169L27.7725 33.4815ZM33.5922 12.0032L33.8815 11.836L34.0464 12.1213L33.7569 12.2883L33.5922 12.0032ZM32.4351 12.6712L33.0137 12.3368L33.1783 12.6219L32.6001 12.9565L32.4351 12.6712ZM6.97685 27.3697L7.55554 27.0358L7.72017 27.3209L7.14148 27.6548L6.97685 27.3697ZM6.10916 27.8709L6.39828 27.704L6.56291 27.9892L6.27351 28.1559L6.10916 27.8709ZM20.0093 3.827L20.0089 4.16095L20.3384 4.16111L20.3383 3.82683L20.0093 3.827ZM20.009 4.82907L20.0092 5.49719L20.3385 5.49718L20.3383 4.82906L20.009 4.82907ZM20.0091 34.2257L20.0093 34.8938L20.3386 34.8938L20.3384 34.2257L20.0091 34.2257ZM20.0094 35.5615L20.0093 35.896L20.3386 35.896L20.3389 35.5616L20.0094 35.5615ZM35.6163 19.8808L35.9505 19.881L35.9506 20.2099L35.6164 20.2101L35.6163 19.8808ZM34.2801 19.8812L34.9482 19.881L34.9482 20.2103L34.2803 20.2101L34.2801 19.8812ZM4.8835 19.8813L5.55145 19.8814L5.55162 20.2104L4.8835 20.2105L4.8835 19.8813ZM3.88142 19.881L4.21554 19.8812L4.21538 20.2107L3.88143 20.2103L3.88142 19.881Z" fill="#201817"/>
</g>
<g opacity="0.95814">
<path d="M8.96692 11.53L6.24535 11.5301L7.57156 13.8276C7.72078 13.5191 7.88264 13.2138 8.05666 12.9124C8.33621 12.4282 8.64004 11.9671 8.96692 11.53Z" fill="#201817"/>
<path d="M31.4802 27.5648L34.0183 27.5644L32.7163 25.3098C32.5072 25.7925 32.268 26.2688 31.9986 26.7353C31.8343 27.0199 31.6609 27.2965 31.4802 27.5648Z" fill="#201817"/>
</g>
<g opacity="0.95814">
<path d="M7.95296 25.7241C7.85897 25.5253 7.77042 25.3244 7.68642 25.1215L7.19178 25.3257L7.44245 25.9346L7.95296 25.7241ZM6.89131 22.4178C6.8516 22.2021 6.81728 21.9849 6.7886 21.7672L6.26349 21.8351L6.34806 22.4881L6.89131 22.4178ZM8.99106 28.4568L9.41824 28.1304C9.55134 28.3042 9.68903 28.4754 9.83147 28.6435L9.3913 28.9798L8.99106 28.4568ZM18.2227 33.23L18.1509 33.7687L18.8036 33.8559L18.878 33.3008C18.6599 33.2828 18.4408 33.2594 18.2227 33.23ZM21.6928 33.2355L21.7629 33.7759L22.4155 33.6912L22.3436 33.1349C22.1277 33.1737 21.9106 33.2073 21.6928 33.2355ZM25.0467 32.3469L25.2527 32.8476L25.8615 32.5965L25.6497 32.0822C25.4504 32.1751 25.2495 32.2637 25.0467 32.3469ZM28.0594 30.623L28.3842 31.0482L28.9073 30.6479L28.5735 30.2112C28.4053 30.3532 28.2336 30.4905 28.0594 30.623ZM33.0796 22.4704L33.6091 22.5411L33.6959 21.8882L33.184 21.82C33.1547 22.0373 33.1197 22.254 33.0796 22.4704ZM33.2621 18.998L33.7879 18.9301L33.7029 18.2765L33.1943 18.3429C33.2222 18.5605 33.2451 18.7791 33.2621 18.998ZM32.5403 15.5955L33.026 15.3957L32.7747 14.7864L32.3057 14.9798C32.3891 15.1831 32.4675 15.3884 32.5403 15.5955ZM30.9646 12.4927L31.375 12.1784L30.9753 11.6556L30.5781 11.959C30.7116 12.1341 30.84 12.3121 30.9646 12.4927ZM22.4006 6.93578L22.4681 6.4303L21.8154 6.34318L21.7501 6.83286C21.9673 6.86168 22.184 6.89593 22.4006 6.93578ZM18.9232 6.76069L18.8571 6.25147L18.204 6.33633L18.2678 6.83022C18.4855 6.80154 18.7038 6.7785 18.9232 6.76069ZM15.5193 7.49149L15.3223 7.01351L14.7136 7.26434L14.9042 7.72764C15.1074 7.64379 15.3126 7.56494 15.5193 7.49149ZM12.4203 9.07585L12.1055 8.66412L11.5823 9.06391L11.8875 9.46327C12.0623 9.32964 12.24 9.20031 12.4203 9.07585ZM6.78634 18.2927L6.27062 18.2239L6.18322 18.8764L6.71694 18.9477C6.73461 18.7294 6.75776 18.5108 6.78634 18.2927Z" fill="#201817"/>
</g>
<rect x="29.978" y="19.5728" width="1.33333" height="16.4444" transform="rotate(119.825 29.978 19.5728)" fill="#201817"/>
<rect x="25.1401" y="10.1394" width="1.33333" height="22.2222" transform="rotate(29.8251 25.1401 10.1394)" fill="#201817"/>
<path d="M29.053 6.26331L29.0316 6.30038L29.1566 6.76799L28.247 8.34347L28.1925 7.94131L27.7812 5.52904L27.1436 5.16092L27.1222 5.19799L27.1959 5.60101L25.9931 7.68435L25.5255 7.81014L25.5042 7.84693L26.275 8.29193L26.2962 8.25515L26.1711 7.78708L27.2517 5.91533L27.8063 9.17601L27.9546 9.26162L29.3349 6.87089L29.8023 6.74538L29.8238 6.70831L29.053 6.26331Z" fill="#201817"/>
<path d="M12.0575 34.2939C12.532 34.5678 13.1274 34.5211 13.427 34.0021C13.6539 33.6092 13.5877 33.2101 13.2151 32.7083C12.8493 32.2204 12.7845 31.9902 12.9258 31.7455C13.0799 31.4786 13.3386 31.45 13.5684 31.5827C13.8612 31.7518 13.894 32.0718 13.6573 32.439L13.6796 32.4773L14.2682 32.3575C14.2585 32.0055 14.0391 31.6663 13.6833 31.4609C13.2903 31.234 12.7282 31.1718 12.4308 31.6868C12.2273 32.0392 12.2911 32.4167 12.6479 32.8945C13.0311 33.4123 13.0988 33.6545 12.9319 33.9436C12.7436 34.2699 12.4139 34.3015 12.1099 34.126C11.7353 33.9102 11.6161 33.5003 11.8177 33.0483L11.6509 32.952L11.2015 33.7305L11.235 33.7494L11.5308 33.708C11.6227 33.9341 11.798 34.1441 12.0575 34.2939Z" fill="#201817"/>
</g>
<defs>
<clipPath id="clip0">
<rect width="40" height="40" fill="white"/>
</clipPath>
</defs>
</svg>
