<svg width="50" height="50" viewBox="0 0 50 50" fill="none" xmlns="http://www.w3.org/2000/svg">
<g clip-path="url(#clip0)">
<path d="M38.1825 4.70061C49.3857 11.9761 52.5748 26.9793 45.2993 38.1826C38.0238 49.3858 23.0205 52.5749 11.8173 45.2994" stroke="#201817" stroke-width="1.5"/>
<path d="M11.8174 45.2995C0.614143 38.024 -2.5749 23.0208 4.70058 11.8175C11.9761 0.614271 26.9793 -2.57478 38.1826 4.70068" stroke="#201817" stroke-width="1.5"/>
<g opacity="0.95814">
<path d="M29.7946 8.16545L30.4839 5.59353L30.086 5.48742L29.3978 8.05663C29.5304 8.09132 29.6624 8.12764 29.7946 8.16545ZM20.8732 8.00971L20.1811 5.42681L19.7836 5.53333L20.4753 8.11362C20.6075 8.0773 20.7401 8.04266 20.8732 8.00971ZM13.0768 12.3007L11.1297 10.3539L10.8388 10.6446L12.7832 12.5894C12.88 12.4918 12.9778 12.3957 13.0768 12.3007ZM8.32961 20.3454L5.64282 19.6255L5.53635 20.0231L8.22839 20.7447C8.26053 20.6116 8.29436 20.4781 8.32961 20.3454ZM8.36585 29.3311L5.59685 30.0731L5.70372 30.4708L8.47891 29.7271C8.43998 29.5953 8.40197 29.4636 8.36585 29.3311ZM12.7844 36.9716L10.7323 39.0238L11.0231 39.3152L13.0784 37.2601C12.9792 37.1653 12.8809 37.0687 12.7844 36.9716ZM20.4515 41.4442L19.7111 44.2076L20.1088 44.3141L20.8496 41.5491C20.7169 41.5156 20.5843 41.4809 20.4515 41.4442ZM29.419 41.493L30.1591 44.2538L30.5562 44.147L29.8159 41.3833C29.6842 41.4213 29.5518 41.458 29.419 41.493ZM37.2246 37.0305L39.1839 38.99L39.475 38.699L37.5126 36.7367C37.4183 36.8358 37.3217 36.934 37.2246 37.0305ZM41.605 29.687L44.2569 30.3973L44.3638 29.9999L41.718 29.2912C41.6822 29.4231 41.6444 29.5553 41.605 29.687ZM41.8448 20.7861L44.4238 20.0951L44.3173 19.6976L41.7451 20.3868C41.7797 20.5195 41.8134 20.6529 41.8448 20.7861ZM37.5142 12.8238L39.3684 10.9696L39.0773 10.6784L37.2257 12.5299C37.3231 12.627 37.4198 12.7246 37.5142 12.8238ZM14.8813 7.49835L15.0903 7.85996L15.4467 7.65417L15.2377 7.29257L14.8813 7.49835ZM15.5077 8.58332L15.9254 9.30689L16.2821 9.10075L15.8643 8.37718L15.5077 8.58332ZM33.8812 40.4064L34.298 41.129L34.6543 40.9236L34.2376 40.2006L33.8812 40.4064ZM34.716 41.8522L34.9246 42.2145L35.281 42.0087L35.0724 41.6464L34.716 41.8522ZM41.9907 15.0043L42.3523 14.7953L42.5584 15.1519L42.1964 15.3607L41.9907 15.0043ZM40.5443 15.8392L41.2675 15.4213L41.4733 15.7777L40.7504 16.1959L40.5443 15.8392ZM8.72143 34.2124L9.44479 33.795L9.65058 34.1514L8.92721 34.5688L8.72143 34.2124ZM7.63682 34.839L7.99822 34.6304L8.204 34.9868L7.84225 35.1952L7.63682 34.839ZM25.012 4.78405L25.0114 5.2015L25.4234 5.20169L25.4232 4.78384L25.012 4.78405ZM25.0117 6.03664L25.0119 6.87179L25.4235 6.87178L25.4232 6.03663L25.0117 6.03664ZM25.0118 42.7824L25.012 43.6176L25.4236 43.6176L25.4234 42.7824L25.0118 42.7824ZM25.0121 44.4521L25.012 44.8704L25.4236 44.8704L25.424 44.4523L25.0121 44.4521ZM44.5208 24.8513L44.9384 24.8515L44.9387 25.2627L44.5208 25.2629L44.5208 24.8513ZM42.8505 24.8518L43.6857 24.8516L43.6857 25.2631L42.8507 25.263L42.8505 24.8518ZM6.10473 24.8519L6.93968 24.852L6.93989 25.2633L6.10474 25.2635L6.10473 24.8519ZM4.85214 24.8516L5.26979 24.8518L5.2696 25.2637L4.85215 25.2632L4.85214 24.8516Z" fill="#201817"/>
</g>
<g opacity="0.95814">
<path d="M11.2086 14.4128L7.80669 14.4129L9.46445 17.2848C9.65097 16.8992 9.85331 16.5175 10.0708 16.1407C10.4203 15.5355 10.8 14.9592 11.2086 14.4128Z" fill="#201817"/>
<path d="M39.35 34.4561L42.5226 34.4557L40.8951 31.6374C40.6338 32.2407 40.3347 32.8361 39.998 33.4192C39.7927 33.775 39.5759 34.1208 39.35 34.4561Z" fill="#201817"/>
</g>
<g opacity="0.95814">
<path d="M9.94169 32.1552C9.8242 31.9067 9.71352 31.6556 9.60851 31.402L8.99021 31.6572L9.30355 32.4183L9.94169 32.1552ZM8.61463 28.0223C8.56499 27.7526 8.52208 27.4812 8.48623 27.2091L7.82985 27.294L7.93556 28.1102L8.61463 28.0223ZM11.2393 35.571L11.7733 35.1631C11.9397 35.3803 12.1118 35.5942 12.2898 35.8045L11.7396 36.2249L11.2393 35.571ZM22.7789 41.5376L22.6891 42.211L23.5049 42.3199L23.598 41.6261C23.3254 41.6036 23.0515 41.5743 22.7789 41.5376ZM27.1165 41.5444L27.2041 42.22L28.0199 42.114L27.93 41.4186C27.6601 41.4672 27.3887 41.5091 27.1165 41.5444ZM31.3088 40.4337L31.5663 41.0595L32.3274 40.7456L32.0626 40.1028C31.8135 40.219 31.5624 40.3296 31.3088 40.4337ZM35.0747 38.2788L35.4807 38.8103L36.1346 38.31L35.7174 37.764C35.5071 37.9415 35.2924 38.1132 35.0747 38.2788ZM41.35 28.088L42.0118 28.1764L42.1204 27.3603L41.4805 27.2751C41.4439 27.5467 41.4001 27.8176 41.35 28.088ZM41.5781 23.7475L42.2354 23.6627L42.1291 22.8457L41.4933 22.9287C41.5283 23.2007 41.5569 23.4739 41.5781 23.7475ZM40.6759 19.4944L41.283 19.2447L40.9689 18.4831L40.3826 18.7249C40.4868 18.9789 40.5848 19.2356 40.6759 19.4944ZM38.7062 15.616L39.2192 15.223L38.7196 14.5696L38.2231 14.9488C38.39 15.1677 38.5505 15.3901 38.7062 15.616ZM28.0012 8.66978L28.0856 8.03794L27.2697 7.92904L27.1882 8.54114C27.4596 8.57716 27.7305 8.61998 28.0012 8.66978ZM23.6544 8.45092L23.5719 7.8144L22.7554 7.92047L22.8353 8.53784C23.1074 8.50198 23.3802 8.47318 23.6544 8.45092ZM19.3996 9.36443L19.1533 8.76695L18.3925 9.08049L18.6308 9.6596C18.8847 9.5548 19.1412 9.45624 19.3996 9.36443ZM15.5258 11.3449L15.1324 10.8302L14.4784 11.3299L14.8598 11.8291C15.0784 11.6621 15.3005 11.5004 15.5258 11.3449ZM8.48342 22.866L7.83877 22.7799L7.72951 23.5956L8.39666 23.6847C8.41876 23.4118 8.44769 23.1386 8.48342 22.866Z" fill="#201817"/>
</g>
<rect x="37.473" y="24.4662" width="1.66667" height="20.5555" transform="rotate(119.825 37.473 24.4662)" fill="#201817"/>
<rect x="31.4255" y="12.6744" width="1.66667" height="27.7778" transform="rotate(29.8251 31.4255 12.6744)" fill="#201817"/>
<path d="M36.316 7.82922L36.2892 7.87556L36.4455 8.46008L35.3085 10.4294L35.2404 9.92673L34.7262 6.91139L33.9292 6.45124L33.9025 6.49758L33.9947 7.00135L32.4912 9.60553L31.9066 9.76277L31.88 9.80875L32.8435 10.365L32.8701 10.319L32.7136 9.73394L34.0644 7.39425L34.7576 11.4701L34.943 11.5771L36.6683 8.5887L37.2527 8.43182L37.2794 8.38548L36.316 7.82922Z" fill="#201817"/>
<path d="M15.072 42.8675C15.6651 43.2099 16.4093 43.1515 16.7839 42.5028C17.0675 42.0116 16.9847 41.5128 16.519 40.8856C16.0618 40.2756 15.9808 39.9879 16.1573 39.682C16.35 39.3484 16.6733 39.3127 16.9606 39.4785C17.3267 39.6899 17.3676 40.0899 17.0717 40.5488L17.0996 40.5968L17.8354 40.447C17.8232 40.007 17.549 39.583 17.1042 39.3262C16.613 39.0426 15.9103 38.9648 15.5387 39.6086C15.2843 40.0491 15.364 40.521 15.81 41.1183C16.289 41.7655 16.3737 42.0682 16.165 42.4297C15.9296 42.8374 15.5175 42.8771 15.1375 42.6577C14.6693 42.3878 14.5202 41.8755 14.7723 41.3105L14.5638 41.1901L14.002 42.1632L14.0439 42.1869L14.4136 42.1352C14.5284 42.4177 14.7476 42.6802 15.072 42.8675Z" fill="#201817"/>
</g>
<defs>
<clipPath id="clip0">
<rect width="50" height="50" fill="white"/>
</clipPath>
</defs>
</svg>
