<svg width="142" height="42" viewBox="0 0 142 42" fill="none" xmlns="http://www.w3.org/2000/svg">
<path d="M30.3075 39H27.8275V38.71C27.9608 38.6567 28.0942 38.6133 28.2275 38.58C28.3608 38.54 28.4975 38.5033 28.6375 38.47V33.97L28.6775 32.8H28.5975L28.2675 33.87L26.2175 39H25.9575L24.0075 33.87L23.6475 32.7H23.5575L23.5675 33.97V38.47C23.6942 38.4967 23.8208 38.53 23.9475 38.57C24.0742 38.61 24.2008 38.6567 24.3275 38.71V39H22.2375V38.71C22.3642 38.6567 22.4942 38.61 22.6275 38.57C22.7675 38.5233 22.9075 38.4867 23.0475 38.46V32.54C22.9075 32.5133 22.7675 32.48 22.6275 32.44C22.4942 32.3933 22.3608 32.3433 22.2275 32.29V32H24.2775L26.0175 36.57L26.3575 37.6H26.3675L26.7075 36.55L28.5075 32H30.3175V32.29C30.1975 32.3433 30.0742 32.3933 29.9475 32.44C29.8208 32.48 29.6908 32.5133 29.5575 32.54V38.48C29.6975 38.5067 29.8275 38.54 29.9475 38.58C30.0742 38.6133 30.1942 38.6567 30.3075 38.71V39ZM35.6494 39H33.0894V38.71C33.3494 38.59 33.616 38.51 33.8894 38.47V32.54C33.756 32.5133 33.6227 32.48 33.4894 32.44C33.356 32.3933 33.2227 32.3433 33.0894 32.29V32H35.6494V32.29C35.5294 32.3433 35.3994 32.3933 35.2594 32.44C35.1194 32.48 34.9827 32.5133 34.8494 32.54V38.47C34.9894 38.4967 35.1294 38.53 35.2694 38.57C35.4094 38.61 35.536 38.6567 35.6494 38.71V39ZM39.625 38.31C39.705 38.39 39.8083 38.46 39.935 38.52C40.0617 38.5733 40.2517 38.6 40.505 38.6C40.7183 38.6 40.9183 38.5733 41.105 38.52C41.2917 38.46 41.4517 38.3767 41.585 38.27C41.725 38.1567 41.835 38.0233 41.915 37.87C41.995 37.71 42.035 37.53 42.035 37.33C42.035 37.0633 41.9517 36.84 41.785 36.66C41.625 36.48 41.4217 36.32 41.175 36.18C40.935 36.04 40.6717 35.9033 40.385 35.77C40.0983 35.6367 39.8317 35.48 39.585 35.3C39.345 35.1133 39.1417 34.8933 38.975 34.64C38.815 34.38 38.735 34.0567 38.735 33.67C38.735 33.39 38.785 33.14 38.885 32.92C38.985 32.7 39.125 32.5133 39.305 32.36C39.4917 32.2067 39.7117 32.09 39.965 32.01C40.2183 31.9233 40.5017 31.88 40.815 31.88C41.2217 31.88 41.5917 31.9133 41.925 31.98C42.265 32.04 42.5317 32.1167 42.725 32.21C42.725 32.3233 42.715 32.4567 42.695 32.61C42.6817 32.7567 42.6617 32.91 42.635 33.07C42.615 33.23 42.5917 33.3867 42.565 33.54C42.5383 33.6867 42.5117 33.8167 42.485 33.93H42.225L41.825 32.56C41.705 32.5067 41.5517 32.4667 41.365 32.44C41.185 32.4133 40.9917 32.4 40.785 32.4C40.445 32.4 40.1717 32.4967 39.965 32.69C39.7583 32.8767 39.655 33.14 39.655 33.48C39.655 33.7533 39.735 33.9833 39.895 34.17C40.0617 34.3567 40.2683 34.5233 40.515 34.67C40.7617 34.8167 41.025 34.96 41.305 35.1C41.5917 35.2333 41.8583 35.39 42.105 35.57C42.3517 35.75 42.555 35.9633 42.715 36.21C42.8817 36.4567 42.965 36.7633 42.965 37.13C42.965 37.43 42.9083 37.7033 42.795 37.95C42.6883 38.1967 42.5317 38.4067 42.325 38.58C42.1183 38.7533 41.865 38.8867 41.565 38.98C41.265 39.0733 40.925 39.12 40.545 39.12C40.125 39.12 39.7483 39.07 39.415 38.97C39.0817 38.87 38.845 38.7633 38.705 38.65C38.7117 38.5367 38.7217 38.4 38.735 38.24C38.755 38.08 38.775 37.9167 38.795 37.75C38.8217 37.5767 38.8483 37.41 38.875 37.25C38.9017 37.09 38.9283 36.9533 38.955 36.84H39.215L39.625 38.31ZM46.9863 38.31C47.0663 38.39 47.1697 38.46 47.2963 38.52C47.423 38.5733 47.613 38.6 47.8663 38.6C48.0797 38.6 48.2797 38.5733 48.4663 38.52C48.653 38.46 48.813 38.3767 48.9463 38.27C49.0863 38.1567 49.1963 38.0233 49.2763 37.87C49.3563 37.71 49.3963 37.53 49.3963 37.33C49.3963 37.0633 49.313 36.84 49.1463 36.66C48.9863 36.48 48.783 36.32 48.5363 36.18C48.2963 36.04 48.033 35.9033 47.7463 35.77C47.4597 35.6367 47.193 35.48 46.9463 35.3C46.7063 35.1133 46.503 34.8933 46.3363 34.64C46.1763 34.38 46.0963 34.0567 46.0963 33.67C46.0963 33.39 46.1463 33.14 46.2463 32.92C46.3463 32.7 46.4863 32.5133 46.6663 32.36C46.853 32.2067 47.073 32.09 47.3263 32.01C47.5797 31.9233 47.863 31.88 48.1763 31.88C48.583 31.88 48.953 31.9133 49.2863 31.98C49.6263 32.04 49.893 32.1167 50.0863 32.21C50.0863 32.3233 50.0763 32.4567 50.0563 32.61C50.043 32.7567 50.023 32.91 49.9963 33.07C49.9763 33.23 49.953 33.3867 49.9263 33.54C49.8997 33.6867 49.873 33.8167 49.8463 33.93H49.5863L49.1863 32.56C49.0663 32.5067 48.913 32.4667 48.7263 32.44C48.5463 32.4133 48.353 32.4 48.1463 32.4C47.8063 32.4 47.533 32.4967 47.3263 32.69C47.1197 32.8767 47.0163 33.14 47.0163 33.48C47.0163 33.7533 47.0963 33.9833 47.2563 34.17C47.423 34.3567 47.6297 34.5233 47.8763 34.67C48.123 34.8167 48.3863 34.96 48.6663 35.1C48.953 35.2333 49.2197 35.39 49.4663 35.57C49.713 35.75 49.9163 35.9633 50.0763 36.21C50.243 36.4567 50.3263 36.7633 50.3263 37.13C50.3263 37.43 50.2697 37.7033 50.1563 37.95C50.0497 38.1967 49.893 38.4067 49.6863 38.58C49.4797 38.7533 49.2263 38.8867 48.9263 38.98C48.6263 39.0733 48.2863 39.12 47.9063 39.12C47.4863 39.12 47.1097 39.07 46.7763 38.97C46.443 38.87 46.2063 38.7633 46.0663 38.65C46.073 38.5367 46.083 38.4 46.0963 38.24C46.1163 38.08 46.1363 37.9167 46.1563 37.75C46.183 37.5767 46.2097 37.41 46.2363 37.25C46.263 37.09 46.2897 36.9533 46.3163 36.84H46.5763L46.9863 38.31ZM55.0677 39H52.8477V38.71C53.0877 38.6033 53.3277 38.5233 53.5677 38.47L56.0977 31.88H56.3877L58.9177 38.47C59.051 38.4967 59.181 38.5267 59.3077 38.56C59.441 38.5933 59.5643 38.6433 59.6777 38.71V39H57.1177V38.71C57.251 38.6567 57.3877 38.61 57.5277 38.57C57.6677 38.53 57.8043 38.4967 57.9377 38.47L57.2577 36.64H54.8677L54.2077 38.47C54.4877 38.51 54.7743 38.59 55.0677 38.71V39ZM55.0677 36.12H57.0877L56.2977 34L56.1077 33.14H56.0877L55.8377 34.02L55.0677 36.12ZM57.8577 30.79C57.6443 31.0033 57.4477 31.15 57.2677 31.23C57.0943 31.31 56.9243 31.35 56.7577 31.35C56.631 31.35 56.511 31.3333 56.3977 31.3C56.291 31.26 56.1843 31.22 56.0777 31.18C55.971 31.14 55.8677 31.1033 55.7677 31.07C55.6677 31.03 55.5643 31.01 55.4577 31.01C55.3643 31.01 55.2677 31.03 55.1677 31.07C55.0743 31.1033 54.9743 31.1667 54.8677 31.26L54.6777 30.97C54.931 30.7433 55.1543 30.59 55.3477 30.51C55.5477 30.4233 55.731 30.38 55.8977 30.38C56.0177 30.38 56.131 30.3967 56.2377 30.43C56.351 30.4633 56.4577 30.5 56.5577 30.54C56.6577 30.58 56.7577 30.6167 56.8577 30.65C56.9577 30.6833 57.061 30.7 57.1677 30.7C57.2543 30.7 57.341 30.6867 57.4277 30.66C57.521 30.6267 57.621 30.5733 57.7277 30.5L57.8577 30.79ZM61.6667 35.5C61.6667 34.98 61.7367 34.5 61.8767 34.06C62.0234 33.6133 62.2301 33.23 62.4967 32.91C62.7701 32.5833 63.1034 32.33 63.4967 32.15C63.8901 31.97 64.3367 31.88 64.8367 31.88C65.3367 31.88 65.7834 31.97 66.1767 32.15C66.5701 32.33 66.9001 32.5833 67.1667 32.91C67.4401 33.23 67.6467 33.6133 67.7867 34.06C67.9334 34.5 68.0067 34.98 68.0067 35.5C68.0067 36.02 67.9334 36.5033 67.7867 36.95C67.6467 37.39 67.4401 37.7733 67.1667 38.1C66.9001 38.42 66.5701 38.67 66.1767 38.85C65.7834 39.03 65.3367 39.12 64.8367 39.12C64.3367 39.12 63.8901 39.03 63.4967 38.85C63.1034 38.67 62.7701 38.42 62.4967 38.1C62.2301 37.7733 62.0234 37.39 61.8767 36.95C61.7367 36.5033 61.6667 36.02 61.6667 35.5ZM62.7367 35.5C62.7367 35.9267 62.7801 36.33 62.8667 36.71C62.9601 37.0833 63.0967 37.41 63.2767 37.69C63.4567 37.97 63.6834 38.1933 63.9567 38.36C64.2301 38.52 64.5534 38.6 64.9267 38.6C65.2667 38.6 65.5634 38.52 65.8167 38.36C66.0701 38.1933 66.2767 37.97 66.4367 37.69C66.6034 37.41 66.7267 37.0833 66.8067 36.71C66.8934 36.33 66.9367 35.9267 66.9367 35.5C66.9367 35.0733 66.8934 34.6733 66.8067 34.3C66.7201 33.92 66.5867 33.59 66.4067 33.31C66.2267 33.03 66.0001 32.81 65.7267 32.65C65.4534 32.4833 65.1301 32.4 64.7567 32.4C64.3901 32.4 64.0767 32.4833 63.8167 32.65C63.5634 32.81 63.3567 33.03 63.1967 33.31C63.0367 33.59 62.9201 33.92 62.8467 34.3C62.7734 34.6733 62.7367 35.0733 62.7367 35.5ZM76.4707 38.31C76.5507 38.39 76.654 38.46 76.7807 38.52C76.9074 38.5733 77.0974 38.6 77.3507 38.6C77.564 38.6 77.764 38.5733 77.9507 38.52C78.1374 38.46 78.2974 38.3767 78.4307 38.27C78.5707 38.1567 78.6807 38.0233 78.7607 37.87C78.8407 37.71 78.8807 37.53 78.8807 37.33C78.8807 37.0633 78.7974 36.84 78.6307 36.66C78.4707 36.48 78.2674 36.32 78.0207 36.18C77.7807 36.04 77.5174 35.9033 77.2307 35.77C76.944 35.6367 76.6774 35.48 76.4307 35.3C76.1907 35.1133 75.9874 34.8933 75.8207 34.64C75.6607 34.38 75.5807 34.0567 75.5807 33.67C75.5807 33.39 75.6307 33.14 75.7307 32.92C75.8307 32.7 75.9707 32.5133 76.1507 32.36C76.3374 32.2067 76.5574 32.09 76.8107 32.01C77.064 31.9233 77.3474 31.88 77.6607 31.88C78.0674 31.88 78.4374 31.9133 78.7707 31.98C79.1107 32.04 79.3774 32.1167 79.5707 32.21C79.5707 32.3233 79.5607 32.4567 79.5407 32.61C79.5274 32.7567 79.5074 32.91 79.4807 33.07C79.4607 33.23 79.4374 33.3867 79.4107 33.54C79.384 33.6867 79.3574 33.8167 79.3307 33.93H79.0707L78.6707 32.56C78.5507 32.5067 78.3974 32.4667 78.2107 32.44C78.0307 32.4133 77.8374 32.4 77.6307 32.4C77.2907 32.4 77.0174 32.4967 76.8107 32.69C76.604 32.8767 76.5007 33.14 76.5007 33.48C76.5007 33.7533 76.5807 33.9833 76.7407 34.17C76.9074 34.3567 77.114 34.5233 77.3607 34.67C77.6074 34.8167 77.8707 34.96 78.1507 35.1C78.4374 35.2333 78.704 35.39 78.9507 35.57C79.1974 35.75 79.4007 35.9633 79.5607 36.21C79.7274 36.4567 79.8107 36.7633 79.8107 37.13C79.8107 37.43 79.754 37.7033 79.6407 37.95C79.534 38.1967 79.3774 38.4067 79.1707 38.58C78.964 38.7533 78.7107 38.8867 78.4107 38.98C78.1107 39.0733 77.7707 39.12 77.3907 39.12C76.9707 39.12 76.594 39.07 76.2607 38.97C75.9274 38.87 75.6907 38.7633 75.5507 38.65C75.5574 38.5367 75.5674 38.4 75.5807 38.24C75.6007 38.08 75.6207 37.9167 75.6407 37.75C75.6674 37.5767 75.694 37.41 75.7207 37.25C75.7474 37.09 75.774 36.9533 75.8007 36.84H76.0607L76.4707 38.31ZM82.862 35.5C82.862 34.98 82.932 34.5 83.072 34.06C83.2187 33.6133 83.4254 33.23 83.692 32.91C83.9654 32.5833 84.2987 32.33 84.692 32.15C85.0854 31.97 85.532 31.88 86.032 31.88C86.532 31.88 86.9787 31.97 87.372 32.15C87.7654 32.33 88.0954 32.5833 88.362 32.91C88.6354 33.23 88.842 33.6133 88.982 34.06C89.1287 34.5 89.202 34.98 89.202 35.5C89.202 36.02 89.1287 36.5033 88.982 36.95C88.842 37.39 88.6354 37.7733 88.362 38.1C88.0954 38.42 87.7654 38.67 87.372 38.85C86.9787 39.03 86.532 39.12 86.032 39.12C85.532 39.12 85.0854 39.03 84.692 38.85C84.2987 38.67 83.9654 38.42 83.692 38.1C83.4254 37.7733 83.2187 37.39 83.072 36.95C82.932 36.5033 82.862 36.02 82.862 35.5ZM83.932 35.5C83.932 35.9267 83.9754 36.33 84.062 36.71C84.1554 37.0833 84.292 37.41 84.472 37.69C84.652 37.97 84.8787 38.1933 85.152 38.36C85.4254 38.52 85.7487 38.6 86.122 38.6C86.462 38.6 86.7587 38.52 87.012 38.36C87.2654 38.1933 87.472 37.97 87.632 37.69C87.7987 37.41 87.922 37.0833 88.002 36.71C88.0887 36.33 88.132 35.9267 88.132 35.5C88.132 35.0733 88.0887 34.6733 88.002 34.3C87.9154 33.92 87.782 33.59 87.602 33.31C87.422 33.03 87.1954 32.81 86.922 32.65C86.6487 32.4833 86.3254 32.4 85.952 32.4C85.5854 32.4 85.272 32.4833 85.012 32.65C84.7587 32.81 84.552 33.03 84.392 33.31C84.232 33.59 84.1154 33.92 84.042 34.3C83.9687 34.6733 83.932 35.0733 83.932 35.5ZM97.2044 37.18H97.4644C97.4977 37.3667 97.5277 37.6033 97.5544 37.89C97.581 38.17 97.5877 38.4433 97.5744 38.71C97.4744 38.79 97.3544 38.8567 97.2144 38.91C97.0744 38.9567 96.9244 38.9967 96.7644 39.03C96.611 39.0633 96.451 39.0867 96.2844 39.1C96.1244 39.1133 95.971 39.12 95.8244 39.12C95.2644 39.12 94.7644 39.05 94.3244 38.91C93.8844 38.7633 93.511 38.5433 93.2044 38.25C92.9044 37.9567 92.671 37.5833 92.5044 37.13C92.3444 36.67 92.2644 36.1267 92.2644 35.5C92.2644 34.8467 92.3544 34.2933 92.5344 33.84C92.7144 33.38 92.9577 33.0067 93.2644 32.72C93.571 32.4267 93.9277 32.2133 94.3344 32.08C94.741 31.9467 95.1677 31.88 95.6144 31.88C96.0544 31.88 96.4244 31.91 96.7244 31.97C97.0244 32.0233 97.2877 32.1067 97.5144 32.22C97.5144 32.3267 97.511 32.4533 97.5044 32.6C97.4977 32.74 97.4877 32.89 97.4744 33.05C97.461 33.21 97.4444 33.3667 97.4244 33.52C97.4044 33.6733 97.3844 33.8133 97.3644 33.94H97.1044L96.5844 32.5C96.511 32.46 96.3877 32.4333 96.2144 32.42C96.0477 32.4067 95.881 32.4 95.7144 32.4C95.381 32.4 95.0644 32.4633 94.7644 32.59C94.471 32.71 94.211 32.9 93.9844 33.16C93.7644 33.4133 93.5877 33.7367 93.4544 34.13C93.321 34.5167 93.2544 34.9733 93.2544 35.5C93.2544 35.9733 93.3144 36.4033 93.4344 36.79C93.5544 37.17 93.7277 37.4967 93.9544 37.77C94.181 38.0367 94.4577 38.2433 94.7844 38.39C95.111 38.53 95.481 38.6 95.8944 38.6C96.1144 38.6 96.2977 38.5833 96.4444 38.55C96.591 38.5167 96.6877 38.4733 96.7344 38.42L97.2044 37.18ZM103.21 39H100.65V38.71C100.91 38.59 101.177 38.51 101.45 38.47V32.54C101.317 32.5133 101.183 32.48 101.05 32.44C100.917 32.3933 100.783 32.3433 100.65 32.29V32H103.21V32.29C103.09 32.3433 102.96 32.3933 102.82 32.44C102.68 32.48 102.543 32.5133 102.41 32.54V38.47C102.55 38.4967 102.69 38.53 102.83 38.57C102.97 38.61 103.097 38.6567 103.21 38.71V39ZM107.906 39H105.686V38.71C105.926 38.6033 106.166 38.5233 106.406 38.47L108.936 31.88H109.226L111.756 38.47C111.889 38.4967 112.019 38.5267 112.146 38.56C112.279 38.5933 112.402 38.6433 112.516 38.71V39H109.956V38.71C110.089 38.6567 110.226 38.61 110.366 38.57C110.506 38.53 110.642 38.4967 110.776 38.47L110.096 36.64H107.706L107.046 38.47C107.326 38.51 107.612 38.59 107.906 38.71V39ZM107.906 36.12H109.926L109.136 34L108.946 33.14H108.926L108.676 34.02L107.906 36.12ZM114.802 32H117.542V32.29C117.382 32.35 117.222 32.4033 117.062 32.45C116.902 32.49 116.742 32.52 116.582 32.54V38.48H118.882L119.472 36.87H119.732C119.752 37.01 119.768 37.1733 119.782 37.36C119.802 37.54 119.815 37.73 119.822 37.93C119.835 38.1233 119.842 38.3133 119.842 38.5C119.842 38.6867 119.838 38.8533 119.832 39H114.802V38.71C114.962 38.6367 115.108 38.5833 115.242 38.55C115.375 38.5167 115.502 38.49 115.622 38.47V32.54C115.468 32.5133 115.322 32.48 115.182 32.44C115.042 32.3933 114.915 32.3433 114.802 32.29V32Z" fill="#201817"/>
<path d="M8.11602 7.3C12.0993 7.3 14.091 8.60833 14.091 11.225C14.091 12.2917 13.7493 13.1833 13.066 13.9C12.3827 14.6 11.391 15.025 10.091 15.175C11.7743 15.4917 12.9993 15.9833 13.766 16.65C14.5327 17.3167 14.916 18.2583 14.916 19.475C14.916 21.0083 14.266 22.15 12.966 22.9C11.666 23.6333 9.97435 24 7.89102 24H1.11602V23.4L2.94102 23.15V8.125L0.816016 7.875V7.3H8.11602ZM6.96602 15.675L6.31602 15.7V23.3C6.63268 23.3833 6.99935 23.425 7.41602 23.425C8.56602 23.425 9.53268 23.1083 10.316 22.475C11.0993 21.825 11.491 20.7583 11.491 19.275C11.491 17.3917 10.6743 16.2667 9.04102 15.9C8.37435 15.75 7.68268 15.675 6.96602 15.675ZM6.31602 7.975V14.975H6.91602C8.08268 14.975 8.99102 14.6583 9.64102 14.025C10.291 13.3917 10.616 12.475 10.616 11.275C10.616 10.0583 10.366 9.20833 9.86602 8.725C9.36602 8.225 8.56602 7.975 7.46602 7.975H6.31602ZM33.6393 24H26.2893V23.4L28.3143 23.175L26.0143 17.425H20.3893L18.3893 22.75L20.6143 23.4V24H15.3893V23.4L17.2893 22.75L23.3393 7.3H25.0893L31.7143 23.175L33.6393 23.4V24ZM25.6393 16.5L23.1893 10.425L20.7393 16.5H25.6393ZM34.7779 23.15C34.0779 22.7 33.7279 22.125 33.7279 21.425C33.7279 20.4583 34.4946 19.8583 36.0279 19.625C36.2946 21.175 36.8613 22.25 37.7279 22.85C38.4946 23.3833 39.3029 23.65 40.1529 23.65C41.0196 23.65 41.7613 23.3917 42.3779 22.875C43.0113 22.3417 43.3279 21.475 43.3279 20.275C43.3279 19.375 43.0029 18.6667 42.3529 18.15C41.7196 17.6167 40.9113 17.15 39.9279 16.75C38.9446 16.35 38.2779 16.075 37.9279 15.925C37.5779 15.7583 37.1279 15.5167 36.5779 15.2C36.0446 14.8833 35.6446 14.5833 35.3779 14.3C34.7113 13.5333 34.3779 12.65 34.3779 11.65C34.3779 10.0833 34.9613 8.9 36.1279 8.1C37.2946 7.3 38.9196 6.9 41.0029 6.9C42.1863 6.9 43.5613 7.03333 45.1279 7.3V11H44.3029L43.3029 8.05C42.4696 7.78333 41.6196 7.65 40.7529 7.65C39.9029 7.65 39.1613 7.925 38.5279 8.475C37.8946 9.00833 37.5779 9.80833 37.5779 10.875C37.5779 12.0917 38.1279 13 39.2279 13.6C39.7779 13.8833 40.4279 14.1667 41.1779 14.45C41.9279 14.7333 42.4696 14.95 42.8029 15.1C43.1363 15.2333 43.5779 15.4583 44.1279 15.775C44.6779 16.075 45.0863 16.375 45.3529 16.675C45.6196 16.975 45.8613 17.375 46.0779 17.875C46.2946 18.3583 46.4029 18.8917 46.4029 19.475C46.4029 20.8917 45.8029 22.05 44.6029 22.95C43.4029 23.85 41.7613 24.3 39.6779 24.3C37.6113 24.3 35.9779 23.9167 34.7779 23.15ZM48.0584 24V23.4L50.2334 23.175V8.125L48.0584 7.9V7.3H60.8084V10.85H60.0084L59.0334 8.2L53.5584 8.125V14.85H58.4084L59.1834 13H59.8834V17.65H59.1584L58.4084 15.75H53.5584V23.2L59.7834 23.125L61.0834 20.275H61.8834L61.5834 24H48.0584ZM74.8939 15.275H75.7439C78.4106 15.275 79.7439 14 79.7439 11.45C79.7439 10.2167 79.4856 9.325 78.9689 8.775C78.4523 8.20833 77.6356 7.925 76.5189 7.925C75.8023 7.925 75.2606 7.95833 74.8939 8.025V15.275ZM74.4689 7.25L77.2689 7.175C81.2356 7.175 83.2189 8.6 83.2189 11.45C83.2189 12.7167 82.7689 13.75 81.8689 14.55C80.9689 15.35 79.8106 15.75 78.3939 15.75H77.8189C79.7189 16 81.0189 16.575 81.7189 17.475C82.4356 18.375 82.7939 19.7417 82.7939 21.575C82.7939 22.7083 83.0273 23.4 83.4939 23.65C83.6606 23.75 83.9023 23.8 84.2189 23.8C84.5523 23.8 85.0023 23.6667 85.5689 23.4L85.5939 24C84.6939 24.3833 83.7773 24.575 82.8439 24.575C80.9773 24.575 79.8523 23.875 79.4689 22.475C79.3356 21.8917 79.2689 21.1667 79.2689 20.3C79.2689 19.4167 79.2106 18.7417 79.0939 18.275C78.9939 17.7917 78.8356 17.4 78.6189 17.1C78.1356 16.3667 77.2273 16 75.8939 16H74.8939V23.175L76.7939 23.4V24H69.7439V23.4L71.5939 23.2V8.075L69.4439 7.775V7.15C70.8439 7.21667 72.1023 7.25 73.2189 7.25H74.4689ZM103.475 15.6C103.475 18.1 102.691 20.175 101.125 21.825C99.5746 23.4583 97.4746 24.275 94.8246 24.275C92.1913 24.275 90.0913 23.4583 88.5246 21.825C86.9746 20.175 86.1996 18.1 86.1996 15.6C86.1996 13.1 86.9746 11.0333 88.5246 9.4C90.0913 7.75 92.1913 6.925 94.8246 6.925C97.4746 6.925 99.5746 7.75 101.125 9.4C102.691 11.0333 103.475 13.1 103.475 15.6ZM94.8746 23.5C98.0746 23.5 99.6746 20.8667 99.6746 15.6C99.6746 13.0667 99.3079 11.1167 98.5746 9.75C97.8579 8.38333 96.6163 7.7 94.8496 7.7C93.0829 7.7 91.8246 8.38333 91.0746 9.75C90.3413 11.1167 89.9746 13.0667 89.9746 15.6C89.9746 20.8667 91.6079 23.5 94.8746 23.5ZM115.533 7.125L121.033 7.35L121.183 11.9H120.283L119.433 8.625C118.283 8.24167 117.174 8.05 116.108 8.05C114.124 8.05 112.516 8.70833 111.283 10.025C110.049 11.325 109.433 13.2583 109.433 15.825C109.433 18.375 110.033 20.25 111.233 21.45C112.433 22.65 113.941 23.25 115.758 23.25C117.591 23.25 118.916 23.05 119.733 22.65L120.658 19.8H121.458L121.308 23.475C119.224 23.925 117.399 24.15 115.833 24.15C114.283 24.15 112.958 24.025 111.858 23.775C110.758 23.5083 109.724 23.0833 108.758 22.5C107.791 21.9167 107.033 21.075 106.483 19.975C105.949 18.875 105.683 17.5583 105.683 16.025C105.683 14.4917 105.958 13.1417 106.508 11.975C107.074 10.7917 107.833 9.85833 108.783 9.175C110.683 7.80833 112.933 7.125 115.533 7.125ZM134.676 7.3H139.751V7.875L137.701 8.55L131.076 14.55L139.426 23.15L141.426 23.3V24H133.426V23.35L135.201 23.175L128.851 16.4V23.175L131.026 23.4V24H123.351V23.4L125.526 23.175V8.125L123.351 7.9V7.3H131.026V7.9L128.851 8.125V15.275L136.451 8.45L134.676 7.9V7.3Z" fill="#201817"/>
</svg>
