<svg width="33" height="21" viewBox="0 0 33 21" fill="none" xmlns="http://www.w3.org/2000/svg">
<path d="M13.8232 10.2956C14.5205 9.95397 15.0476 9.57351 15.4088 9.16235C16.0515 8.42188 16.3686 7.44002 16.3686 6.22294C16.3686 5.03858 16.0515 4.02604 15.4172 3.17715C14.3588 1.79438 12.5673 1.08662 10.0345 1.0498H0V20.9998H9.35619C10.4105 20.9998 11.387 20.9118 12.2901 20.7318C13.1932 20.5498 13.9744 20.2164 14.636 19.7295C15.224 19.3061 15.7155 18.7804 16.1061 18.1606C16.7235 17.2238 17.0323 16.1621 17.0323 14.9798C17.0323 13.8343 16.7613 12.8586 16.2237 12.0568C15.6798 11.2549 14.8817 10.6679 13.8232 10.2956ZM4.13941 4.51492H8.65894C9.65231 4.51492 10.4714 4.61924 11.114 4.82584C11.8575 5.12653 12.2292 5.73815 12.2292 6.67091C12.2292 7.50752 11.9457 8.09255 11.3849 8.42188C10.82 8.7512 10.087 8.91689 9.18818 8.91689H4.13941V4.51492ZM11.2862 17.1869C10.7864 17.4222 10.0828 17.5388 9.18188 17.5388H4.13941V12.2184H9.25118C10.1416 12.2245 10.8347 12.3391 11.3303 12.5538C12.2124 12.9425 12.6513 13.6543 12.6513 14.6955C12.6513 15.9228 12.1977 16.7492 11.2862 17.1869Z" fill="#9C6F69"/>
<path d="M29.8281 1.95752H21.0886V4.37948H29.8281V1.95752Z" fill="#9C6F69"/>
<path d="M32.8644 11.5154C32.6829 10.3882 32.2827 9.39669 31.6598 8.54082C30.9771 7.57124 30.1108 6.86101 29.0567 6.41212C28.0068 5.96125 26.8249 5.73581 25.509 5.73781C23.2998 5.73781 21.5053 6.40614 20.1171 7.73283C18.7331 9.06352 18.04 10.9767 18.04 13.4705C18.04 16.1299 18.8053 18.0511 20.344 19.2302C21.8766 20.4112 23.6464 20.9998 25.6554 20.9998C28.0873 20.9998 29.9788 20.2995 31.3298 18.903C32.1941 18.0212 32.6829 17.1533 32.7902 16.3015H28.7638C28.5308 16.7224 28.2605 17.0516 27.9511 17.291C27.3901 17.7299 26.6599 17.9494 25.7647 17.9494C24.9128 17.9494 24.1909 17.7678 23.5886 17.4067C22.5944 16.8282 22.0746 15.8147 22.0086 14.3723H32.9964C33.0129 13.1294 32.9717 12.1738 32.8644 11.5154ZM22.1076 11.8885C22.252 10.9528 22.6027 10.2107 23.1596 9.66202C23.7165 9.11539 24.5044 8.84007 25.5131 8.83808C26.4433 8.83808 27.221 9.09544 27.8542 9.61215C28.4792 10.1329 28.8319 10.889 28.9041 11.8885H22.1076Z" fill="#9C6F69"/>
</svg>
